<svg width="13" height="16" viewBox="0 0 13 16" fill="none" xmlns="http://www.w3.org/2000/svg">
<g clip-path="url(#clip0_1_3916)">
<path d="M5.5279 2.45996L6.1721 1.80957C6.44487 1.53418 6.88594 1.53418 7.1558 1.80957L12.7969 7.50195C13.0696 7.77734 13.0696 8.22266 12.7969 8.49512L7.1558 14.1904C6.88304 14.4658 6.44196 14.4658 6.1721 14.1904L5.5279 13.54C5.25223 13.2617 5.25804 12.8076 5.53951 12.5352L9.03616 9.17188H0.696429C0.310491 9.17188 0 8.8584 0 8.46875V7.53125C0 7.1416 0.310491 6.82813 0.696429 6.82813H9.03616L5.53951 3.46484C5.25513 3.19238 5.24933 2.73828 5.5279 2.45996Z" fill="white"/>
</g>
<defs>
<clipPath id="clip0_1_3916">
<rect width="13" height="15" fill="white" transform="translate(0 0.5)"/>
</clipPath>
</defs>
</svg>
