<svg viewBox="0 0 17 17" fill="none" xmlns="http://www.w3.org/2000/svg">
<g clip-path="url(#clip0_3_1157)">
<path d="M4.19437 10.4033L3.63744 12.4824L1.60184 12.5255C0.9935 11.3971 0.648438 10.1062 0.648438 8.7343C0.648438 7.40771 0.971063 6.15671 1.54294 5.05518H1.54337L3.35562 5.38743L4.1495 7.1888C3.98334 7.67321 3.89278 8.19321 3.89278 8.7343C3.89284 9.32155 3.99922 9.88421 4.19437 10.4033Z" fill="#FBBB00"/>
<path d="M16.5087 7.23975C16.6006 7.72368 16.6485 8.22347 16.6485 8.73425C16.6485 9.307 16.5883 9.86568 16.4735 10.4046C16.0841 12.2384 15.0665 13.8397 13.6568 14.9729L13.6564 14.9725L11.3738 14.856L11.0507 12.8393C11.9861 12.2907 12.7171 11.4323 13.1022 10.4046H8.82434V7.23975H13.1646H16.5087Z" fill="#518EF8"/>
<path d="M13.6581 14.9725L13.6586 14.973C12.2876 16.0749 10.546 16.7343 8.65023 16.7343C5.60364 16.7343 2.95486 15.0314 1.60364 12.5255L4.19617 10.4033C4.87176 12.2064 6.61111 13.4899 8.65023 13.4899C9.5267 13.4899 10.3478 13.253 11.0524 12.8394L13.6581 14.9725Z" fill="#28B446"/>
<path d="M13.7573 2.57612L11.1656 4.69787C10.4364 4.24206 9.57441 3.97875 8.65091 3.97875C6.56563 3.97875 4.79375 5.32116 4.152 7.18887L1.54585 5.05525H1.54541C2.87685 2.48822 5.55903 0.734375 8.65091 0.734375C10.592 0.734375 12.3718 1.42581 13.7573 2.57612Z" fill="#F14336"/>
</g>
<defs>
<clipPath id="clip0_3_1157">
<rect width="16" height="16" fill="white" transform="translate(0.648438 0.734375)"/>
</clipPath>
</defs>
</svg>
