<?xml version="1.0" encoding="UTF-8"?>

<svg xmlns="http://www.w3.org/2000/svg" xmlns:xlink="http://www.w3.org/1999/xlink">

  <symbol id="increase">
    <path d="M24.2188 18.8333H3.125V3.79167C3.125 3.35427 2.77539 3 2.34375 3H0.78125C0.349609 3 0 3.35427 0 3.79167V20.4167C0 21.291 0.699707 22 1.5625 22H24.2188C24.6504 22 25 21.6457 25 21.2083V19.625C25 19.1876 24.6504 18.8333 24.2188 18.8333ZM22.6562 4.58333H16.8916C15.8477 4.58333 15.3247 5.86237 16.063 6.61049L17.645 8.21362L14.0625 11.8444L10.48 8.21411C9.86963 7.59563 8.88037 7.59563 8.27051 8.21411L4.9165 11.6128C4.61133 11.9221 4.61133 12.4233 4.9165 12.7326L6.021 13.8518C6.32617 14.161 6.8208 14.161 7.12598 13.8518L9.375 11.5723L12.9575 15.2026C13.5679 15.821 14.5571 15.821 15.167 15.2026L19.8545 10.4526L21.4365 12.0557C22.1748 12.8038 23.437 12.2739 23.437 11.216V5.375C23.4375 4.9376 23.0879 4.58333 22.6562 4.58333Z"/>
  </symbol>

  <symbol id="clock">
    <path d="M12 1C5.37097 1 0 6.37097 0 13C0 19.629 5.37097 25 12 25C18.629 25 24 19.629 24 13C24 6.37097 18.629 1 12 1ZM14.7629 17.9403L10.4952 14.8387C10.3452 14.7274 10.2581 14.5532 10.2581 14.3694V6.22581C10.2581 5.90645 10.5194 5.64516 10.8387 5.64516H13.1613C13.4806 5.64516 13.7419 5.90645 13.7419 6.22581V12.8887L16.8145 15.1242C17.0758 15.3129 17.129 15.6758 16.9403 15.9371L15.5758 17.8145C15.3871 18.071 15.0242 18.129 14.7629 17.9403Z"/>
  </symbol>

  <symbol id="instagram" viewBox="0 0 17 17">
    <path d="M8.50179 4.65244C6.23162 4.65244 4.4005 6.48397 4.4005 8.75464C4.4005 11.0253 6.23162 12.8568 8.50179 12.8568C10.7719 12.8568 12.6031 11.0253 12.6031 8.75464C12.6031 6.48397 10.7719 4.65244 8.50179 4.65244ZM8.50179 11.4216C7.03475 11.4216 5.83542 10.2256 5.83542 8.75464C5.83542 7.2837 7.03118 6.08767 8.50179 6.08767C9.97239 6.08767 11.1682 7.2837 11.1682 8.75464C11.1682 10.2256 9.96882 11.4216 8.50179 11.4216ZM13.7274 4.48464C13.7274 5.0166 13.2991 5.44146 12.7708 5.44146C12.239 5.44146 11.8142 5.01303 11.8142 4.48464C11.8142 3.95625 12.2426 3.52782 12.7708 3.52782C13.2991 3.52782 13.7274 3.95625 13.7274 4.48464ZM16.4438 5.45574C16.3831 4.17403 16.0904 3.0387 15.1516 2.10329C14.2165 1.16789 13.0814 0.875134 11.7999 0.81087C10.4793 0.735895 6.52075 0.735895 5.20006 0.81087C3.9222 0.871564 2.78712 1.16432 1.84835 2.09972C0.909593 3.03513 0.620468 4.17046 0.556219 5.45217C0.48126 6.77316 0.48126 10.7325 0.556219 12.0535C0.616899 13.3352 0.909593 14.4706 1.84835 15.406C2.78712 16.3414 3.91863 16.6341 5.20006 16.6984C6.52075 16.7734 10.4793 16.7734 11.7999 16.6984C13.0814 16.6377 14.2165 16.345 15.1516 15.406C16.0868 14.4706 16.3795 13.3352 16.4438 12.0535C16.5187 10.7325 16.5187 6.77673 16.4438 5.45574ZM14.7376 13.4709C14.4592 14.1707 13.9202 14.7098 13.217 14.9918C12.164 15.4096 9.66542 15.3132 8.50179 15.3132C7.33815 15.3132 4.83597 15.406 3.78656 14.9918C3.08695 14.7134 2.54796 14.1743 2.26598 13.4709C1.84835 12.4177 1.94473 9.91854 1.94473 8.75464C1.94473 7.59074 1.85192 5.08801 2.26598 4.03836C2.54439 3.33859 3.08338 2.79949 3.78656 2.51744C4.83954 2.09972 7.33815 2.19612 8.50179 2.19612C9.66542 2.19612 12.1676 2.10329 13.217 2.51744C13.9166 2.79592 14.4556 3.33502 14.7376 4.03836C15.1552 5.09158 15.0588 7.59074 15.0588 8.75464C15.0588 9.91854 15.1552 12.4213 14.7376 13.4709Z" />
  </symbol>

  <symbol id="fill">
    <g clip-path="url(#clip0_10_2492)">
    <path d="M14.7219 9.8182C14.7219 9.8182 12.9441 12.4503 12.9441 13.4546C12.9441 14.4588 13.7402 15.2727 14.7219 15.2727C15.7036 15.2727 16.4997 14.4588 16.4997 13.4546C16.4997 12.4503 14.7219 9.8182 14.7219 9.8182ZM14.4616 6.89377L8.69243 0.993488C8.51882 0.815931 8.29131 0.727295 8.06381 0.727295C7.83631 0.727295 7.60881 0.815931 7.43548 0.993488L5.16936 3.3111L2.77546 0.862522C2.60185 0.684965 2.32046 0.684965 2.14712 0.862522L1.51878 1.50514C1.34545 1.68269 1.34545 1.97048 1.51878 2.14775L3.91296 4.59604L1.28073 7.28809C0.239335 8.35286 0.239335 10.0796 1.28073 11.1446L4.53602 14.4739C5.05658 15.0063 5.73908 15.2727 6.42131 15.2727C7.10381 15.2727 7.78603 15.0066 8.30659 14.4739L14.4613 8.17928C14.8086 7.82417 14.8086 7.24889 14.4616 6.89377ZM11.2333 8.90997H2.33101C2.36879 8.80087 2.43018 8.68326 2.5374 8.57389L2.90268 8.20031L5.16963 5.88184L6.79742 7.54661C7.14437 7.90144 7.70715 7.90144 8.05409 7.54661C8.40104 7.19178 8.40104 6.61622 8.05409 6.26139L6.42631 4.59661L8.06381 2.9219L12.5761 7.53667L11.2333 8.90997Z" />
    </g>
    <defs>
    <clipPath>
    <rect width="16" height="16" fill="white" transform="translate(0.5)"/>
    </clipPath>
  </defs>
  </symbol>

  <symbol id="calendar">
    <g clip-path="url(#clip0_10_2500)">
    <path d="M0 15.4768C0 16.3049 0.767857 16.9768 1.71429 16.9768H14.2857C15.2321 16.9768 16 16.3049 16 15.4768V6.97681H0V15.4768ZM11.4286 9.35181C11.4286 9.14556 11.6214 8.97681 11.8571 8.97681H13.2857C13.5214 8.97681 13.7143 9.14556 13.7143 9.35181V10.6018C13.7143 10.8081 13.5214 10.9768 13.2857 10.9768H11.8571C11.6214 10.9768 11.4286 10.8081 11.4286 10.6018V9.35181ZM11.4286 13.3518C11.4286 13.1456 11.6214 12.9768 11.8571 12.9768H13.2857C13.5214 12.9768 13.7143 13.1456 13.7143 13.3518V14.6018C13.7143 14.8081 13.5214 14.9768 13.2857 14.9768H11.8571C11.6214 14.9768 11.4286 14.8081 11.4286 14.6018V13.3518ZM6.85714 9.35181C6.85714 9.14556 7.05 8.97681 7.28571 8.97681H8.71429C8.95 8.97681 9.14286 9.14556 9.14286 9.35181V10.6018C9.14286 10.8081 8.95 10.9768 8.71429 10.9768H7.28571C7.05 10.9768 6.85714 10.8081 6.85714 10.6018V9.35181ZM6.85714 13.3518C6.85714 13.1456 7.05 12.9768 7.28571 12.9768H8.71429C8.95 12.9768 9.14286 13.1456 9.14286 13.3518V14.6018C9.14286 14.8081 8.95 14.9768 8.71429 14.9768H7.28571C7.05 14.9768 6.85714 14.8081 6.85714 14.6018V13.3518ZM2.28571 9.35181C2.28571 9.14556 2.47857 8.97681 2.71429 8.97681H4.14286C4.37857 8.97681 4.57143 9.14556 4.57143 9.35181V10.6018C4.57143 10.8081 4.37857 10.9768 4.14286 10.9768H2.71429C2.47857 10.9768 2.28571 10.8081 2.28571 10.6018V9.35181ZM2.28571 13.3518C2.28571 13.1456 2.47857 12.9768 2.71429 12.9768H4.14286C4.37857 12.9768 4.57143 13.1456 4.57143 13.3518V14.6018C4.57143 14.8081 4.37857 14.9768 4.14286 14.9768H2.71429C2.47857 14.9768 2.28571 14.8081 2.28571 14.6018V13.3518ZM14.2857 2.97681H12.5714V1.47681C12.5714 1.20181 12.3143 0.976807 12 0.976807H10.8571C10.5429 0.976807 10.2857 1.20181 10.2857 1.47681V2.97681H5.71429V1.47681C5.71429 1.20181 5.45714 0.976807 5.14286 0.976807H4C3.68571 0.976807 3.42857 1.20181 3.42857 1.47681V2.97681H1.71429C0.767857 2.97681 0 3.64868 0 4.47681V5.97681H16V4.47681C16 3.64868 15.2321 2.97681 14.2857 2.97681Z" fill="black"/>
    </g>
    <defs>
    <clipPath id="clip0_10_2500">
    <rect width="16" height="16" fill="white" transform="translate(0 0.976807)"/>
    </clipPath>
    </defs>
</symbol>

<symbol id="windows" viewBox="0 0 29 29">
  <path d="M16.4375 0.425781H26.9375C27.6624 0.425781 28.25 1.09734 28.25 1.92578V11.9258C28.25 12.7542 27.6624 13.4258 26.9375 13.4258H16.4375C15.7126 13.4258 15.125 12.7542 15.125 11.9258V1.92578C15.125 1.09734 15.7126 0.425781 16.4375 0.425781ZM12.0625 0.425781H1.5625C0.837617 0.425781 0.25 1.09734 0.25 1.92578V11.9258C0.25 12.7542 0.837617 13.4258 1.5625 13.4258H12.0625C12.7874 13.4258 13.375 12.7542 13.375 11.9258V1.92578C13.375 1.09734 12.7874 0.425781 12.0625 0.425781ZM0.25 16.9258V26.9258C0.25 27.7542 0.837617 28.4258 1.5625 28.4258H12.0625C12.7874 28.4258 13.375 27.7542 13.375 26.9258V16.9258C13.375 16.0973 12.7874 15.4258 12.0625 15.4258H1.5625C0.837617 15.4258 0.25 16.0973 0.25 16.9258ZM16.4375 28.4258H26.9375C27.6624 28.4258 28.25 27.7542 28.25 26.9258V16.9258C28.25 16.0973 27.6624 15.4258 26.9375 15.4258H16.4375C15.7126 15.4258 15.125 16.0973 15.125 16.9258V26.9258C15.125 27.7542 15.7126 28.4258 16.4375 28.4258Z"/>
</symbol>

<symbol id="code" viewBox="0 0 29 26">
  <path d="M12.452 25.6282L9.78347 24.7482C9.5035 24.6587 9.34601 24.3256 9.42475 24.0074L15.3962 0.629199C15.4749 0.310993 15.768 0.132002 16.048 0.221498L18.7165 1.10154C18.9965 1.19103 19.154 1.52415 19.0752 1.84236L13.1038 25.2205C13.0207 25.5387 12.732 25.7227 12.452 25.6282ZM7.4649 20.0497L9.36788 17.7427C9.56912 17.4991 9.55599 17.1113 9.33288 16.8875L5.36944 12.9249L9.33288 8.96221C9.55599 8.73847 9.57349 8.35066 9.36788 8.10703L7.4649 5.80004C7.26804 5.56139 6.93557 5.54647 6.72121 5.77518L0.417331 12.4873C0.194223 12.721 0.194223 13.1237 0.417331 13.3574L6.72121 20.0746C6.93557 20.3033 7.26804 20.2933 7.4649 20.0497ZM21.7788 20.0795L28.0827 13.3624C28.3058 13.1287 28.3058 12.726 28.0827 12.4923L21.7788 5.77021C21.5688 5.54647 21.2363 5.55642 21.0351 5.79507L19.1321 8.10206C18.9309 8.34569 18.944 8.7335 19.1671 8.95724L23.1306 12.9249L19.1671 16.8875C18.944 17.1113 18.9265 17.4991 19.1321 17.7427L21.0351 20.0497C21.232 20.2933 21.5644 20.3033 21.7788 20.0795Z"/>
</symbol>

<symbol id="gear" viewBox="0 0 16 17">
  <path d="M14.3652 10.1092C14.5096 9.35959 14.5096 8.59402 14.3652 7.8444L15.7982 7.05224C15.9649 6.96186 16.0371 6.77578 15.9815 6.60034C15.6094 5.45198 14.9706 4.40995 14.1375 3.54868C14.0098 3.41576 13.8042 3.38387 13.6376 3.47425L12.2046 4.2664C11.5992 3.77197 10.9049 3.38918 10.1551 3.13399V1.54968C10.1551 1.36892 10.0218 1.20942 9.83848 1.17221C8.59987 0.906384 7.33904 0.917017 6.16153 1.17221C5.97823 1.20942 5.84493 1.36892 5.84493 1.54968V3.13399C5.0951 3.38918 4.40081 3.77197 3.79539 4.2664L2.36238 3.47425C2.20131 3.38387 1.99025 3.41576 1.8625 3.54868C1.02935 4.40995 0.390608 5.45198 0.0184698 6.60034C-0.0370733 6.77578 0.0406864 6.96186 0.201761 7.05224L1.63477 7.8444C1.49036 8.59402 1.49036 9.35959 1.63477 10.1092L0.201761 10.9014C0.0351321 10.9918 -0.0370733 11.1778 0.0184698 11.3533C0.390608 12.5016 1.02935 13.5384 1.8625 14.4049C1.99025 14.5379 2.19576 14.5697 2.36238 14.4794L3.79539 13.6872C4.40081 14.1816 5.0951 14.5644 5.84493 14.8196V16.4039C5.84493 16.5847 5.97823 16.7442 6.16153 16.7814C7.40014 17.0472 8.66096 17.0366 9.83848 16.7814C10.0218 16.7442 10.1551 16.5847 10.1551 16.4039V14.8196C10.9049 14.5644 11.5992 14.1816 12.2046 13.6872L13.6376 14.4794C13.7987 14.5697 14.0098 14.5379 14.1375 14.4049C14.9706 13.5437 15.6094 12.5016 15.9815 11.3533C16.0371 11.1778 15.9593 10.9918 15.7982 10.9014L14.3652 10.1092ZM8.00556 11.5553C6.517 11.5553 5.31172 10.3963 5.31172 8.97681C5.31172 7.55731 6.52256 6.39831 8.00556 6.39831C9.48855 6.39831 10.6994 7.55731 10.6994 8.97681C10.6994 10.3963 9.49411 11.5553 8.00556 11.5553Z"/>
</symbol>

<symbol id="check" viewBox="0 0 17 17">
  <g clip-path="url(#clip0_10_2815)">
  <path d="M5.93455 14.7083L0.734549 9.50829C0.422143 9.19588 0.422143 8.68935 0.734549 8.37691L1.86589 7.24553C2.1783 6.9331 2.68486 6.9331 2.99727 7.24553L6.50024 10.7485L14.0032 3.24554C14.3156 2.93313 14.8222 2.93313 15.1346 3.24554L16.2659 4.37691C16.5783 4.68932 16.5783 5.19585 16.2659 5.50829L7.06592 14.7083C6.75349 15.0207 6.24695 15.0207 5.93455 14.7083Z"/>
  </g>
  <defs>
  <clipPath>
  <rect width="16" height="16" fill="white" transform="translate(0.5 0.976807)"/>
  </clipPath>
  </defs>
</symbol>

<symbol id="cube" viewBox="0 0 19 19">
  <path d="M9.03436 0.840523L1.9809 3.5315C1.34676 3.773 0.92627 4.39399 0.92627 5.08399V12.8499C0.92627 13.4778 1.27555 14.0505 1.82491 14.3299L8.87837 17.9179C9.33616 18.1525 9.87535 18.1525 10.3331 17.9179L17.3866 14.3299C17.9393 14.0505 18.2852 13.4743 18.2852 12.8499V5.08399C18.2852 4.39399 17.8647 3.77645 17.2306 3.53495L10.1772 0.843973C9.81091 0.699074 9.40399 0.699074 9.03436 0.840523ZM9.60745 2.98296L16.1183 5.46694V5.50488L9.60745 8.19586L3.09656 5.50488V5.46694L9.60745 2.98296ZM10.6926 15.2649V10.1278L16.1183 7.88537V12.5049L10.6926 15.2649Z"/>
</symbol>

<symbol id="sync" viewBox="0 0 28 28">
  <path d="M20.1617 7.58437C18.4826 6.01215 16.3036 5.1503 13.9918 5.15234C9.83149 5.156 6.23984 8.00858 5.24818 11.9656C5.17599 12.2536 4.91936 12.457 4.62239 12.457H1.54459C1.14187 12.457 0.835933 12.0914 0.91043 11.6956C2.07257 5.52424 7.49093 0.855469 14 0.855469C17.569 0.855469 20.8101 2.25926 23.2015 4.5446L25.1198 2.62632C25.9318 1.81426 27.3203 2.3894 27.3203 3.53785V10.7383C27.3203 11.4502 26.7432 12.0273 26.0312 12.0273H18.8308C17.6824 12.0273 17.1072 10.6389 17.9193 9.82675L20.1617 7.58437ZM1.96875 16.3242H9.16918C10.3176 16.3242 10.8928 17.7127 10.0807 18.5248L7.83828 20.7672C9.51739 22.3395 11.6966 23.2014 14.0084 23.1993C18.1666 23.1955 21.7597 20.3449 22.7518 16.3861C22.824 16.098 23.0806 15.8946 23.3776 15.8946H26.4555C26.8582 15.8946 27.1641 16.2602 27.0896 16.656C25.9274 22.8273 20.5091 27.4961 14 27.4961C10.431 27.4961 7.18994 26.0923 4.79851 23.807L2.88022 25.7252C2.06817 26.5373 0.679688 25.9622 0.679688 24.8137V17.6133C0.679688 16.9013 1.25681 16.3242 1.96875 16.3242Z" fill="white"/>
</symbol>

<symbol id="phone" viewBox="0 0 18 27">
  <path d="M15.3167 0.425781H3.18334C1.74793 0.425781 0.583344 1.51758 0.583344 2.86328V23.9883C0.583344 25.334 1.74793 26.4258 3.18334 26.4258H15.3167C16.7521 26.4258 17.9167 25.334 17.9167 23.9883V2.86328C17.9167 1.51758 16.7521 0.425781 15.3167 0.425781ZM9.25001 24.8008C8.29126 24.8008 7.51668 24.0746 7.51668 23.1758C7.51668 22.277 8.29126 21.5508 9.25001 21.5508C10.2088 21.5508 10.9833 22.277 10.9833 23.1758C10.9833 24.0746 10.2088 24.8008 9.25001 24.8008ZM15.3167 19.3164C15.3167 19.6516 15.0242 19.9258 14.6667 19.9258H3.83334C3.47584 19.9258 3.18334 19.6516 3.18334 19.3164V3.47266C3.18334 3.1375 3.47584 2.86328 3.83334 2.86328H14.6667C15.0242 2.86328 15.3167 3.1375 15.3167 3.47266V19.3164Z" fill="white"/>
</symbol>

<symbol id="planet" viewBox="0 0 29 29">
  <path d="M14.25 0.925781C6.51782 0.925781 0.25 7.1936 0.25 14.9258C0.25 22.658 6.51782 28.9258 14.25 28.9258C21.9822 28.9258 28.25 22.658 28.25 14.9258C28.25 7.1936 21.9822 0.925781 14.25 0.925781ZM18.8954 21.1129C18.6752 21.3319 18.4444 21.5617 18.2569 21.7497C18.0881 21.919 17.969 22.1279 17.9086 22.3542C17.8234 22.6738 17.7545 22.9967 17.6394 23.3066L16.6577 25.9513C15.8809 26.1207 15.077 26.2161 14.25 26.2161V24.6705C14.3454 23.958 13.8187 22.6235 12.9725 21.7773C12.6338 21.4386 12.4435 20.9791 12.4435 20.4998V18.6928C12.4435 18.0357 12.0896 17.4317 11.5144 17.1138C10.7031 16.6651 9.54927 16.0379 8.75895 15.6399C8.11089 15.3136 7.51137 14.8981 6.97226 14.4121L6.9271 14.3714C6.54157 14.0234 6.19927 13.6303 5.90758 13.2006C5.37806 12.4233 4.51548 11.1447 3.95492 10.3137C5.11048 7.74514 7.19298 5.68239 9.78073 4.56183L11.1361 5.23981C11.7368 5.54014 12.4435 5.10377 12.4435 4.43199V3.79409C12.8946 3.72127 13.3535 3.67497 13.8204 3.65747L15.418 5.25506C15.7708 5.60788 15.7708 6.17973 15.418 6.53256L15.1532 6.79675L14.5695 7.38046C14.3934 7.55659 14.3934 7.8428 14.5695 8.01893L14.8343 8.28368C15.0104 8.45981 15.0104 8.74602 14.8343 8.92215L14.3827 9.37376C14.2979 9.4584 14.1829 9.50591 14.0631 9.50586H13.5556C13.4382 9.50586 13.3253 9.55159 13.2406 9.63401L12.6806 10.1788C12.612 10.2456 12.5664 10.3325 12.5503 10.427C12.5343 10.5215 12.5487 10.6186 12.5915 10.7043L13.4715 12.4651C13.6217 12.7654 13.4032 13.1188 13.0679 13.1188H12.7495C12.6406 13.1188 12.5356 13.0792 12.4537 13.0081L11.9298 12.5531C11.8113 12.4503 11.668 12.3801 11.5141 12.3494C11.3602 12.3187 11.2009 12.3286 11.052 12.3781L9.29242 12.9647C9.15808 13.0094 9.04124 13.0954 8.95847 13.2103C8.87569 13.3252 8.83117 13.4632 8.83121 13.6048C8.83121 13.8605 8.97573 14.0937 9.20435 14.2083L9.82984 14.521C10.361 14.7869 10.947 14.9252 11.5409 14.9252C12.1348 14.9252 12.8161 16.4658 13.3473 16.7317H17.1155C17.5948 16.7317 18.0537 16.9219 18.393 17.2606L19.1658 18.0334C19.4887 18.3564 19.67 18.7944 19.6699 19.2511C19.6698 19.5971 19.6013 19.9398 19.4684 20.2593C19.3355 20.5788 19.1408 20.8689 18.8954 21.1129ZM23.7903 15.956C23.4635 15.8742 23.1784 15.6738 22.9915 15.3932L21.9765 13.8707C21.828 13.6483 21.7488 13.3868 21.7488 13.1193C21.7488 12.8519 21.828 12.5904 21.9765 12.368L23.0824 10.7094C23.2134 10.5135 23.3929 10.3543 23.604 10.2493L24.3368 9.88296C25.1 11.4026 25.5403 13.112 25.5403 14.9258C25.5403 15.4152 25.4985 15.8945 25.4376 16.3676L23.7903 15.956Z" fill="white"/>
</symbol>

<symbol id="filter" viewBox="0 0 29 29">
  <path d="M26.9363 0.925781H1.56412C0.398289 0.925781 -0.189984 2.34033 0.63607 3.16638L10.7501 13.2819V24.5508C10.7501 24.979 10.959 25.3804 11.3099 25.626L15.6849 28.6875C16.548 29.2916 17.7501 28.6793 17.7501 27.6122V13.2819L27.8644 3.16638C28.6887 2.34197 28.1045 0.925781 26.9363 0.925781Z" fill="white"/>
</symbol>

</svg>
