<svg viewBox="0 0 76 47" xmlns="http://www.w3.org/2000/svg">
  <path d="M6.04297 23.5957C6.11328 23.4551 6.23047 23.3438 6.39453 23.2617C6.57031 23.168 6.75195 23.0918 6.93945 23.0332C7.13867 22.9746 7.32617 22.9336 7.50195 22.9102C7.67773 22.8867 7.79492 22.875 7.85352 22.875C8.11133 22.875 8.26367 22.9277 8.31055 23.0332C8.36914 23.1387 8.39844 23.3262 8.39844 23.5957V34.9688C8.99609 34.1953 9.59375 33.3633 10.1914 32.4727C10.8008 31.5703 11.3398 30.6504 11.8086 29.7129L11.9844 29.3438L12.7051 29.8887L12.5293 30.2578C12.2949 30.7266 12.0137 31.2188 11.6855 31.7344C11.3691 32.25 11.0293 32.7773 10.666 33.3164C10.3027 33.8438 9.92188 34.3711 9.52344 34.8984C9.13672 35.4258 8.76172 35.9297 8.39844 36.4102V40.3301C8.39844 41.4082 8.29883 42.3223 8.09961 43.0723C7.91211 43.834 7.64844 44.4492 7.30859 44.918C6.96875 45.3984 6.57031 45.7441 6.11328 45.9551C5.65625 46.166 5.1582 46.2715 4.61914 46.2715C4.2793 46.2715 3.96875 46.2188 3.6875 46.1133C3.39453 46.0078 3.14258 45.8496 2.93164 45.6387C2.7207 45.4395 2.55664 45.1934 2.43945 44.9004C2.32227 44.6191 2.26367 44.2969 2.26367 43.9336C2.26367 43.4062 2.36328 42.8789 2.5625 42.3516C2.75 41.8242 3.01953 41.2793 3.37109 40.7168C3.71094 40.1543 4.10938 39.5742 4.56641 38.9766C5.02344 38.3906 5.51562 37.7754 6.04297 37.1309V29.5371H5.86719L5.51562 30.2578L4.79492 29.7129L4.9707 29.3438C5.26367 28.7461 5.46875 28.1484 5.58594 27.5508C5.71484 26.9414 5.79688 26.373 5.83203 25.8457C5.87891 25.3184 5.90234 24.8555 5.90234 24.457C5.91406 24.0586 5.96094 23.7715 6.04297 23.5957ZM4.42578 45.1992C4.61328 45.1992 4.80078 45.1582 4.98828 45.0762C5.1875 45.0059 5.36328 44.8359 5.51562 44.5664C5.66797 44.2969 5.79102 43.8984 5.88477 43.3711C5.99023 42.8438 6.04297 42.1289 6.04297 41.2266V38.5723C5.64453 39.0645 5.28125 39.5391 4.95312 39.9961C4.61328 40.4648 4.32031 40.916 4.07422 41.3496C3.82812 41.7949 3.63477 42.2227 3.49414 42.6328C3.35352 43.043 3.2832 43.4414 3.2832 43.8281C3.2832 44.1914 3.38281 44.5078 3.58203 44.7773C3.78125 45.0586 4.0625 45.1992 4.42578 45.1992ZM8.75 19.2715C8.75 19.6816 8.60938 20.0273 8.32812 20.3086C8.05859 20.5781 7.71875 20.7129 7.30859 20.7129C6.91016 20.7129 6.57031 20.5781 6.28906 20.3086C6.00781 20.0273 5.86719 19.6816 5.86719 19.2715C5.86719 18.873 6.00781 18.5332 6.28906 18.252C6.57031 17.9707 6.91016 17.8301 7.30859 17.8301C7.71875 17.8301 8.05859 17.9707 8.32812 18.252C8.60938 18.5332 8.75 18.873 8.75 19.2715ZM22.6543 32.9121C22.6543 33.5801 22.7129 34.1426 22.8301 34.5996C22.9473 35.0566 23.1523 35.2852 23.4453 35.2852C23.6211 35.2852 23.8086 35.2031 24.0078 35.0391C24.2188 34.8633 24.459 34.582 24.7285 34.1953C24.998 33.8086 25.3027 33.3105 25.6426 32.7012C25.9941 32.0801 26.3926 31.3242 26.8379 30.4336L27.3652 29.3438L28.0859 29.8887L27.5586 30.9785C27.0664 31.9629 26.6035 32.8477 26.1699 33.6328C25.748 34.4062 25.3438 35.0625 24.957 35.6016C24.5703 36.1406 24.1895 36.5566 23.8145 36.8496C23.4512 37.1309 23.0879 37.2715 22.7246 37.2715C22.3379 37.2715 22.0098 37.166 21.7402 36.9551C21.4824 36.7441 21.2656 36.457 21.0898 36.0938C20.9141 35.7188 20.7793 35.291 20.6855 34.8105C20.5918 34.3184 20.5273 33.7969 20.4922 33.2461C20.2109 33.8086 19.9004 34.3359 19.5605 34.8281C19.2207 35.3086 18.8633 35.7305 18.4883 36.0938C18.125 36.457 17.7441 36.7441 17.3457 36.9551C16.9473 37.166 16.5488 37.2715 16.1504 37.2715C15.5645 37.2715 14.9961 37.1484 14.4453 36.9023C13.8945 36.6562 13.4023 36.2812 12.9688 35.7773C12.5469 35.2734 12.207 34.6406 11.9492 33.8789C11.6914 33.1055 11.5625 32.1973 11.5625 31.1543C11.5625 29.9355 11.7207 28.8223 12.0371 27.8145C12.3535 26.7949 12.7812 25.9219 13.3203 25.1953C13.8594 24.457 14.4805 23.8887 15.1836 23.4902C15.8867 23.0801 16.625 22.875 17.3984 22.875C17.8672 22.875 18.3008 22.9805 18.6992 23.1914C19.0977 23.4023 19.4434 23.6602 19.7363 23.9648C20.041 24.2578 20.293 24.5742 20.4922 24.9141C20.6914 25.2422 20.8262 25.5234 20.8965 25.7578L21.1074 24.0527C21.1309 23.8301 21.2363 23.6426 21.4238 23.4902C21.623 23.3379 21.8398 23.2207 22.0742 23.1387C22.3086 23.0449 22.5371 22.9805 22.7598 22.9453C22.9824 22.8984 23.1406 22.875 23.2344 22.875C23.375 22.875 23.4688 22.8984 23.5156 22.9453C23.5625 22.9922 23.5859 23.0859 23.5859 23.2266C23.5859 23.4023 23.5332 23.7598 23.4277 24.2988C23.334 24.8262 23.2285 25.5059 23.1113 26.3379C23.0059 27.1582 22.9004 28.125 22.7949 29.2383C22.7012 30.3516 22.6543 31.5762 22.6543 32.9121ZM20.7207 28.2715C20.7207 27.7324 20.6387 27.2051 20.4746 26.6895C20.3105 26.1621 20.0879 25.6992 19.8066 25.3008C19.5254 24.8906 19.1973 24.5625 18.8223 24.3164C18.459 24.0703 18.0723 23.9473 17.6621 23.9473C17.1582 23.9473 16.6836 24.0938 16.2383 24.3867C15.8047 24.668 15.4238 25.0723 15.0957 25.5996C14.7793 26.1152 14.5273 26.7422 14.3398 27.4805C14.1523 28.207 14.0586 29.0098 14.0586 29.8887C14.0586 31.6465 14.334 32.9883 14.8848 33.9141C15.4355 34.8281 16.168 35.2852 17.082 35.2852C17.4805 35.2852 17.8906 35.127 18.3125 34.8105C18.7461 34.4824 19.1387 34.0195 19.4902 33.4219C19.8535 32.8125 20.1465 32.0742 20.3691 31.207C20.6035 30.3398 20.7207 29.3613 20.7207 28.2715ZM33.3066 27.2344C33.4473 27.0117 33.5645 26.7363 33.6582 26.4082C33.7637 26.0801 33.8164 25.752 33.8164 25.4238C33.8164 25.0254 33.7168 24.6797 33.5176 24.3867C33.3184 24.0938 32.9609 23.9473 32.4453 23.9473C32.1055 23.9473 31.7598 24.0703 31.4082 24.3164C31.0566 24.5625 30.7285 24.9316 30.4238 25.4238C30.1309 25.916 29.8906 26.5371 29.7031 27.2871C29.5156 28.0371 29.4219 28.916 29.4219 29.9238C29.4219 30.7207 29.5039 31.4473 29.668 32.1035C29.832 32.7598 30.0723 33.3223 30.3887 33.791C30.7051 34.2598 31.0859 34.6289 31.5312 34.8984C31.9883 35.1562 32.498 35.2852 33.0605 35.2852C33.4707 35.2852 33.8867 35.1797 34.3086 34.9688C34.7422 34.7578 35.1758 34.4297 35.6094 33.9844C36.0547 33.5391 36.5117 32.9648 36.9805 32.2617C37.4492 31.5469 37.9297 30.6973 38.4219 29.7129L38.5977 29.3438L39.3184 29.8887L39.1426 30.2578C38.5098 31.5117 37.877 32.584 37.2441 33.4746C36.623 34.3652 36.0078 35.0918 35.3984 35.6543C34.7891 36.2168 34.1914 36.627 33.6055 36.8848C33.0312 37.1426 32.4746 37.2715 31.9355 37.2715C31.1738 37.2715 30.4941 37.1133 29.8965 36.7969C29.2988 36.4805 28.7949 36.0527 28.3848 35.5137C27.9746 34.9629 27.6582 34.3301 27.4355 33.6152C27.2246 32.8887 27.1191 32.127 27.1191 31.3301C27.1191 30.0645 27.2891 28.916 27.6289 27.8848C27.9805 26.8418 28.4316 25.9512 28.9824 25.2129C29.5332 24.4746 30.1543 23.9004 30.8457 23.4902C31.5371 23.0801 32.2344 22.875 32.9375 22.875C33.4766 22.875 33.9277 22.9512 34.291 23.1035C34.6543 23.2559 34.9473 23.4492 35.1699 23.6836C35.3926 23.918 35.5508 24.1699 35.6445 24.4395C35.7383 24.709 35.7852 24.9668 35.7852 25.2129C35.7852 25.459 35.7324 25.7168 35.627 25.9863C35.5215 26.2441 35.3633 26.4902 35.1523 26.7246C34.9531 26.9473 34.7129 27.1523 34.4316 27.3398C34.1504 27.5156 33.834 27.6445 33.4824 27.7266L33.3066 27.2344ZM53.3457 29.8887L53.1523 30.2578C52.7539 31.0547 52.2207 31.6934 51.5527 32.1738C50.8965 32.6426 50.1816 32.9473 49.4082 33.0879C49.1973 33.6855 48.9219 34.2422 48.582 34.7578C48.2539 35.2617 47.873 35.7012 47.4395 36.0762C47.0176 36.4512 46.5371 36.7441 45.998 36.9551C45.4707 37.166 44.8965 37.2715 44.2754 37.2715C43.373 37.2715 42.5586 37.084 41.832 36.709C41.1172 36.3223 40.5078 35.8066 40.0039 35.1621C39.5 34.5059 39.1133 33.7441 38.8438 32.877C38.5742 31.998 38.4395 31.0605 38.4395 30.0645C38.4395 29.1973 38.5391 28.4121 38.7383 27.709C38.9375 26.9941 39.1895 26.3613 39.4941 25.8105C39.7988 25.248 40.1387 24.7617 40.5137 24.3516C40.8887 23.9297 41.2578 23.584 41.6211 23.3145C41.9844 23.0449 42.3125 22.8457 42.6055 22.7168C42.9102 22.5762 43.1387 22.5059 43.291 22.5059L43.5195 23.1211C43.0391 23.4727 42.6113 23.9648 42.2363 24.5977C41.9082 25.1367 41.6094 25.8516 41.3398 26.7422C41.082 27.6328 40.9531 28.7402 40.9531 30.0645C40.9531 30.873 41.0293 31.6582 41.1816 32.4199C41.334 33.1816 41.5566 33.8555 41.8496 34.4414C42.1426 35.0273 42.5 35.4961 42.9219 35.8477C43.3555 36.1992 43.8418 36.375 44.3809 36.375C45.1191 36.375 45.7285 36.082 46.209 35.4961C46.7012 34.8984 47.0645 34.084 47.2988 33.0527C46.6895 32.9238 46.1094 32.6836 45.5586 32.332C45.0078 31.9805 44.5215 31.5469 44.0996 31.0312C43.6777 30.5039 43.3379 29.9004 43.0801 29.2207C42.834 28.541 42.7109 27.8027 42.7109 27.0059C42.7109 26.3496 42.793 25.7754 42.957 25.2832C43.1328 24.7793 43.3613 24.3633 43.6426 24.0352C43.9238 23.6953 44.2461 23.4434 44.6094 23.2793C44.9844 23.1035 45.377 23.0156 45.7871 23.0156C46.2676 23.0156 46.7598 23.1562 47.2637 23.4375C47.7676 23.707 48.2246 24.1172 48.6348 24.668C49.0449 25.207 49.3789 25.8867 49.6367 26.707C49.8945 27.5273 50.0234 28.4824 50.0234 29.5723C50.0234 29.9824 50 30.3867 49.9531 30.7852C49.9062 31.1836 49.8359 31.5703 49.7422 31.9453C50.3047 31.7812 50.8145 31.5176 51.2715 31.1543C51.7402 30.791 52.127 30.3105 52.4316 29.7129L52.625 29.3438L53.3457 29.8887ZM43.8711 26.8652C43.8711 27.5566 43.9648 28.1953 44.1523 28.7812C44.3516 29.3555 44.6152 29.8652 44.9434 30.3105C45.2715 30.7441 45.6523 31.1074 46.0859 31.4004C46.5195 31.6934 46.9824 31.8984 47.4746 32.0156C47.5332 31.6875 47.5684 31.3477 47.5801 30.9961C47.6035 30.6328 47.6152 30.2637 47.6152 29.8887C47.6152 29.0566 47.5508 28.3066 47.4219 27.6387C47.293 26.959 47.123 26.3848 46.9121 25.916C46.7012 25.4355 46.4551 25.0664 46.1738 24.8086C45.8926 24.5508 45.6055 24.4219 45.3125 24.4219C44.9141 24.4219 44.5742 24.6387 44.293 25.0723C44.0117 25.4941 43.8711 26.0918 43.8711 26.8652ZM56.4219 35.0391C56.6328 35.0391 56.873 34.9043 57.1426 34.6348C57.4238 34.3535 57.7227 33.9727 58.0391 33.4922C58.3555 33.0117 58.6895 32.4492 59.041 31.8047C59.3926 31.1602 59.7559 30.4629 60.1309 29.7129L60.3066 29.3438L61.0273 29.8887L60.8516 30.2578C60.2305 31.5 59.6738 32.5664 59.1816 33.457C58.7012 34.3359 58.25 35.0625 57.8281 35.6367C57.4062 36.1992 57.002 36.6152 56.6152 36.8848C56.2402 37.1426 55.8535 37.2715 55.4551 37.2715C54.9277 37.2715 54.4707 37.1016 54.084 36.7617C53.709 36.4102 53.3926 35.8301 53.1348 35.0215C52.8887 34.2012 52.707 33.123 52.5898 31.7871C52.4609 30.4512 52.3965 28.7988 52.3965 26.8301C52.3965 24.041 52.5137 21.6504 52.748 19.6582C52.9824 17.6543 53.2988 16.0137 53.6973 14.7363C54.1074 13.4473 54.5762 12.5039 55.1035 11.9062C55.6426 11.2969 56.2051 10.9922 56.791 10.9922C57.1426 10.9922 57.4355 11.1387 57.6699 11.4316C57.916 11.7129 58.0391 12.2285 58.0391 12.9785C58.0391 13.5645 57.9922 14.2324 57.8984 14.9824C57.8047 15.7324 57.6816 16.5352 57.5293 17.3906C57.377 18.2461 57.1953 19.1367 56.9844 20.0625C56.7734 20.9766 56.5508 21.8906 56.3164 22.8047C56.082 23.707 55.8418 24.5977 55.5957 25.4766C55.3496 26.3438 55.1094 27.1582 54.875 27.9199C54.9453 29.3613 55.0215 30.5449 55.1035 31.4707C55.1973 32.3848 55.3027 33.1055 55.4199 33.6328C55.5488 34.1602 55.6953 34.5293 55.8594 34.7402C56.0234 34.9395 56.2109 35.0391 56.4219 35.0391ZM56.8965 13.4004C56.8965 13.1543 56.8672 12.9609 56.8086 12.8203C56.75 12.6797 56.6562 12.6094 56.5273 12.6094C56.3984 12.6094 56.2695 12.791 56.1406 13.1543C56.0117 13.5176 55.8828 14.0098 55.7539 14.6309C55.6367 15.252 55.5254 15.9727 55.4199 16.793C55.3262 17.6133 55.2383 18.4863 55.1562 19.4121C55.0742 20.3262 55.0098 21.2637 54.9629 22.2246C54.916 23.1855 54.8867 24.1113 54.875 25.002C55.1562 23.9707 55.4141 22.916 55.6484 21.8379C55.8945 20.748 56.1113 19.6934 56.2988 18.6738C56.4863 17.6543 56.6328 16.6934 56.7383 15.791C56.8438 14.877 56.8965 14.0801 56.8965 13.4004ZM65.4922 35.2852C65.9023 35.2852 66.3184 35.1797 66.7402 34.9688C67.1738 34.7578 67.6074 34.4297 68.041 33.9844C68.4863 33.5391 68.9434 32.9648 69.4121 32.2617C69.8809 31.5469 70.3613 30.6973 70.8535 29.7129L71.0293 29.3438L71.75 29.8887L71.5742 30.2578C70.9414 31.5117 70.3086 32.584 69.6758 33.4746C69.0547 34.3652 68.4395 35.0918 67.8301 35.6543C67.2324 36.2168 66.6406 36.627 66.0547 36.8848C65.4688 37.1426 64.9062 37.2715 64.3672 37.2715C63.6055 37.2715 62.9258 37.1133 62.3281 36.7969C61.7305 36.4805 61.2266 36.0527 60.8164 35.5137C60.4062 34.9629 60.0957 34.3301 59.8848 33.6152C59.6621 32.8887 59.5508 32.127 59.5508 31.3301C59.5508 30.0645 59.7266 28.916 60.0781 27.8848C60.418 26.8418 60.875 25.9512 61.4492 25.2129C62.0352 24.4746 62.6973 23.9004 63.4355 23.4902C64.1738 23.0801 64.9414 22.875 65.7383 22.875C66.5469 22.875 67.1621 23.0801 67.584 23.4902C68.0176 23.9004 68.2344 24.416 68.2344 25.0371C68.2344 25.6348 68.0645 26.1973 67.7246 26.7246C67.3848 27.2402 66.9219 27.75 66.3359 28.2539C65.7617 28.7461 65.0938 29.2383 64.332 29.7305C63.5703 30.2109 62.7676 30.709 61.9238 31.2246C62.0059 31.834 62.1465 32.3906 62.3457 32.8945C62.5449 33.3867 62.7969 33.8145 63.1016 34.1777C63.4062 34.5293 63.7578 34.8047 64.1562 35.0039C64.5547 35.1914 65 35.2852 65.4922 35.2852ZM66.0371 25.5645C66.0371 25.0957 65.9082 24.7266 65.6504 24.457C65.4043 24.1875 65.0996 24.0527 64.7363 24.0527C64.4316 24.0527 64.1094 24.1641 63.7695 24.3867C63.4297 24.5977 63.1191 24.9434 62.8379 25.4238C62.5566 25.8926 62.3223 26.4961 62.1348 27.2344C61.9473 27.9727 61.8535 28.8691 61.8535 29.9238V30.3281C62.252 30.1172 62.6914 29.8418 63.1719 29.502C63.6641 29.1504 64.1211 28.7637 64.543 28.3418C64.9648 27.9199 65.3164 27.4746 65.5977 27.0059C65.8906 26.5254 66.0371 26.0449 66.0371 25.5645Z" fill="white"/>
</svg>
