<svg width="552" height="461" viewBox="0 0 552 461" fill="none" xmlns="http://www.w3.org/2000/svg">
<g opacity="0.6">
<path d="M220.92 231.2C220.92 289.402 173.788 336.567 115.67 336.567C57.5518 336.567 10.4203 289.402 10.4203 231.2C10.4203 172.998 57.5518 125.833 115.67 125.833C173.788 125.833 220.92 172.998 220.92 231.2Z" fill="#EAF4FC" stroke="#EAF4FC" stroke-width="20"/>
<path d="M176.511 231.2C176.511 264.854 149.259 292.115 115.67 292.115C82.0806 292.115 54.8293 264.854 54.8293 231.2C54.8293 197.545 82.0806 170.285 115.67 170.285C149.259 170.285 176.511 197.545 176.511 231.2Z" fill="#E9F3FF" stroke="#D5E8FF" stroke-width="25"/>
</g>
<rect x="83.5679" y="198.678" width="64.9551" height="65.021" rx="6.50961" fill="#0066FF"/>
<path d="M115.494 217.377V219.193C115.494 220.755 115.202 221.008 114.194 221.557L104.806 226.328V226.54L114.151 231.226C115.202 231.775 115.494 231.987 115.494 233.591V235.617C115.494 236.884 115.074 237.306 113.984 236.715L99.8589 228.946C99.0217 228.482 98.7264 228.144 98.7264 227.173V225.822C98.7264 224.851 99.0217 224.471 99.8589 224.006L113.984 216.279C115.074 215.688 115.494 216.11 115.494 217.377Z" fill="white"/>
<path d="M116.985 224.054L131.067 231.781C131.947 232.245 132.242 232.583 132.242 233.554V234.905C132.242 235.918 131.947 236.256 131.067 236.721L116.985 244.447C115.852 245.039 115.475 244.617 115.475 243.35V241.534C115.475 239.972 115.767 239.718 116.775 239.212L126.163 234.441V234.187L116.817 229.501C115.767 228.994 115.475 228.74 115.475 227.136V225.109C115.475 223.842 115.852 223.421 116.985 224.054Z" fill="white"/>
<g filter="url(#filter0_d_3_21)">
<rect x="388.857" y="11.2004" width="151.891" height="54.2468" rx="5.42468" fill="white"/>
<path d="M475.216 34.7709H470.091V35.315C471.694 35.315 471.952 35.6588 471.952 37.6932V41.3609C471.952 43.3951 471.695 43.7676 470.091 43.7676C468.86 43.5958 468.03 42.9367 466.885 41.676L465.568 40.2435C467.343 39.9279 468.287 38.8108 468.287 37.5499C468.287 35.9744 466.942 34.7709 464.422 34.7709H459.383V35.315C460.986 35.315 461.244 35.6588 461.244 37.6932V41.3609C461.244 43.3951 460.986 43.7676 459.383 43.7676V44.3119H465.081V43.7676C463.478 43.7676 463.22 43.3951 463.22 41.3609V40.3297H463.707L466.885 44.3119H475.216C479.31 44.3119 481.086 42.1347 481.086 39.5269C481.086 36.9197 479.311 34.7709 475.216 34.7709ZM463.22 39.4408V35.6305H464.394C465.682 35.6305 466.255 36.5187 466.255 37.5501C466.255 38.5531 465.682 39.441 464.394 39.441H463.22V39.4408ZM475.302 43.4238H475.102C474.071 43.4238 473.928 43.1661 473.928 41.848V35.6305C473.928 35.6305 475.188 35.6305 475.302 35.6305C478.28 35.6305 478.824 37.8078 478.824 39.4985C478.824 41.246 478.28 43.4238 475.302 43.4238Z" fill="#00749A"/>
<path d="M443.438 40.5014L445.414 34.656C445.986 32.9656 445.729 32.4787 443.896 32.4787V31.9054H449.279V32.4787C447.475 32.4787 447.046 32.9084 446.33 35L443.066 44.799H442.694L439.773 35.8307L436.796 44.799H436.424L433.246 35C432.559 32.9084 432.1 32.4787 430.44 32.4787V31.9054H436.796V32.4787C435.106 32.4787 434.648 32.8797 435.25 34.656L437.168 40.5014L440.06 31.9054H440.604L443.438 40.5014Z" fill="#00749A"/>
<path d="M453.171 44.6843C450.022 44.6843 447.445 42.3637 447.445 39.5268C447.445 36.719 450.022 34.3979 453.171 34.3979C456.32 34.3979 458.897 36.719 458.897 39.5268C458.897 42.3637 456.32 44.6843 453.171 44.6843ZM453.171 35.2868C450.537 35.2868 449.621 37.6646 449.621 39.527C449.621 41.4184 450.537 43.7677 453.171 43.7677C455.834 43.7677 456.75 41.4184 456.75 39.527C456.75 37.6646 455.834 35.2868 453.171 35.2868Z" fill="#00749A"/>
<path d="M487.634 43.648V44.221H481.078V43.648C482.996 43.648 483.34 43.1611 483.34 40.2955V35.7114C483.34 32.8458 482.996 32.3876 481.078 32.3876V31.8143H487.004C489.953 31.8143 491.586 33.3329 491.586 35.3676C491.586 37.3446 489.953 38.8917 487.004 38.8917H485.372V40.2952C485.372 43.1611 485.716 43.648 487.634 43.648ZM487.004 32.8458H485.372V37.8315H487.004C488.608 37.8315 489.352 36.7142 489.352 35.3676C489.352 33.9923 488.608 32.8458 487.004 32.8458Z" fill="#464342"/>
<path d="M511.777 41.6188L511.633 42.1344C511.376 43.08 511.061 43.4238 509.028 43.4238H508.627C507.138 43.4238 506.881 43.08 506.881 41.0458V39.7279C509.114 39.7279 509.286 39.9282 509.286 41.4183H509.83V37.1489H509.286C509.286 38.6388 509.114 38.8393 506.881 38.8393V35.6305H508.455C510.488 35.6305 510.803 35.9744 511.061 36.9199L511.204 37.464H511.662L511.462 34.7709H503.044V35.315C504.647 35.315 504.905 35.6588 504.905 37.6932V41.3609C504.905 43.2219 504.686 43.6907 503.422 43.7575C502.221 43.5739 501.396 42.9181 500.267 41.676L498.95 40.2435C500.726 39.9279 501.67 38.8108 501.67 37.5499C501.67 35.9744 500.325 34.7709 497.805 34.7709H492.766V35.315C494.369 35.315 494.627 35.6588 494.627 37.6932V41.3609C494.627 43.3951 494.37 43.7676 492.766 43.7676V44.3119H498.464V43.7676C496.861 43.7676 496.603 43.3951 496.603 41.3609V40.3297H497.09L500.268 44.3119H512.035L512.207 41.619H511.777V41.6188ZM496.603 39.4408V35.6305H497.776C499.065 35.6305 499.638 36.5187 499.638 37.5501C499.638 38.5531 499.065 39.441 497.776 39.441H496.603V39.4408Z" fill="#464342"/>
<path d="M517.59 44.6841C516.445 44.6841 515.443 44.0826 515.014 43.7098C514.87 43.8534 514.613 44.2831 514.556 44.6841H514.012V40.7305H514.584C514.814 42.6214 516.13 43.7388 517.82 43.7388C518.736 43.7388 519.48 43.2231 519.48 42.3637C519.48 41.6189 518.822 41.0456 517.648 40.5013L516.016 39.7278C514.87 39.183 514.012 38.2374 514.012 36.977C514.012 35.6017 515.3 34.4271 517.075 34.4271C518.02 34.4271 518.822 34.771 519.309 35.172C519.452 35.0574 519.595 34.742 519.681 34.3979H520.225V37.7792H519.623C519.423 36.4324 518.679 35.315 517.161 35.315C516.36 35.315 515.615 35.7735 515.615 36.4901C515.615 37.2349 516.216 37.6359 517.591 38.2663L519.165 39.0399C520.54 39.6988 521.083 40.7595 521.083 41.6189C521.083 43.4236 519.509 44.6841 517.59 44.6841Z" fill="#464342"/>
<path d="M526.408 44.6841C525.262 44.6841 524.26 44.0826 523.831 43.7098C523.688 43.8534 523.43 44.2831 523.373 44.6841H522.829V40.7305H523.402C523.631 42.6214 524.948 43.7388 526.637 43.7388C527.553 43.7388 528.298 43.2231 528.298 42.3637C528.298 41.6189 527.639 41.0456 526.465 40.5013L524.833 39.7278C523.688 39.183 522.829 38.2374 522.829 36.977C522.829 35.6017 524.117 34.4271 525.892 34.4271C526.837 34.4271 527.639 34.771 528.126 35.172C528.269 35.0574 528.412 34.742 528.498 34.3979H529.042V37.7792H528.441C528.24 36.4324 527.496 35.315 525.979 35.315C525.177 35.315 524.432 35.7735 524.432 36.4901C524.432 37.2349 525.033 37.6359 526.408 38.2663L527.982 39.0399C529.357 39.6988 529.9 40.7595 529.9 41.6189C529.9 43.4236 528.326 44.6841 526.408 44.6841Z" fill="#464342"/>
<path d="M401.808 37.9156C401.808 42.9346 404.722 47.272 408.949 49.3275L402.905 32.7551C402.202 34.3321 401.808 36.0773 401.808 37.9156Z" fill="#464342"/>
<path d="M423.031 37.2756C423.031 35.7085 422.468 34.6232 421.986 33.7785C421.344 32.734 420.742 31.8495 420.742 30.805C420.742 29.6394 421.625 28.5544 422.869 28.5544C422.926 28.5544 422.979 28.5614 423.034 28.5645C420.779 26.4977 417.776 25.2358 414.477 25.2358C410.051 25.2358 406.156 27.5087 403.891 30.9512C404.188 30.9601 404.468 30.9664 404.706 30.9664C406.031 30.9664 408.083 30.8055 408.083 30.8055C408.766 30.7652 408.846 31.7691 408.164 31.85C408.164 31.85 407.478 31.9308 406.714 31.9709L411.328 45.7056L414.101 37.3832L412.127 31.9704C411.444 31.9303 410.798 31.8495 410.798 31.8495C410.115 31.8094 410.195 30.7647 410.878 30.805C410.878 30.805 412.971 30.9659 414.216 30.9659C415.541 30.9659 417.592 30.805 417.592 30.805C418.276 30.7647 418.356 31.7687 417.674 31.8495C417.674 31.8495 416.986 31.9303 416.224 31.9704L420.802 45.6011L422.066 41.3746C422.614 39.6208 423.031 38.3611 423.031 37.2756Z" fill="#464342"/>
<path d="M414.7 39.0248L410.898 50.0799C412.033 50.4138 413.234 50.5964 414.478 50.5964C415.953 50.5964 417.368 50.3412 418.685 49.8777C418.651 49.8234 418.62 49.7657 418.595 49.703L414.7 39.0248Z" fill="#464342"/>
<path d="M425.595 31.8318C425.65 32.2357 425.681 32.6693 425.681 33.1356C425.681 34.4224 425.441 35.8688 424.717 37.6774L420.847 48.8758C424.614 46.6776 427.148 42.5935 427.148 37.9156C427.148 35.711 426.585 33.638 425.595 31.8318Z" fill="#464342"/>
<path d="M414.477 23.1349C406.333 23.1349 399.707 29.7654 399.707 37.9155C399.707 46.0666 406.333 52.6969 414.477 52.6969C422.621 52.6969 429.248 46.0666 429.248 37.9155C429.248 29.7654 422.621 23.1349 414.477 23.1349ZM414.477 52.0194C406.707 52.0194 400.384 45.6924 400.384 37.9155C400.384 30.1392 406.706 23.8126 414.477 23.8126C422.247 23.8126 428.569 30.1392 428.569 37.9155C428.569 45.6924 422.247 52.0194 414.477 52.0194Z" fill="#464342"/>
</g>
<g filter="url(#filter1_d_3_21)">
<rect x="388.857" y="87.146" width="125.853" height="54.2468" rx="5.42468" fill="white"/>
<path d="M452.761 111.838C450.775 111.838 449.412 113.38 449.204 115.277H456.347C456.11 113.35 454.895 111.838 452.761 111.838ZM470.278 112.253C467.877 112.253 466.751 114.476 466.751 116.67C466.751 118.833 467.818 121.323 470.278 121.323C472.619 121.323 473.775 118.893 473.775 116.818C473.716 114.713 472.59 112.253 470.278 112.253ZM435.274 111.838C433.288 111.838 431.925 113.38 431.717 115.277H438.86C438.594 113.35 437.378 111.838 435.274 111.838ZM498.879 105.525C496.627 105.525 494.819 106.8 493.989 108.934L493.426 110.416L492.892 108.934C492.122 106.829 490.254 105.496 488.002 105.496C487.705 105.496 487.439 105.525 487.142 105.585V103.569C487.142 100.516 484.949 98.2638 482.044 98.2638C479.14 98.2638 476.946 100.546 476.946 103.569V107.482C475.257 106.059 473.182 105.318 470.93 105.318C470.426 105.318 469.922 105.348 469.448 105.436V103.599C469.448 100.546 467.284 98.2934 464.439 98.2934C461.593 98.2934 459.43 100.576 459.43 103.599V107.897C457.503 106.237 455.132 105.348 452.554 105.348C449.501 105.348 446.685 106.622 444.67 108.934C444.344 109.29 444.047 109.675 443.78 110.119C443.514 109.734 443.217 109.349 442.891 108.963C440.816 106.622 437.971 105.348 434.948 105.348C432.666 105.348 430.532 106.059 428.753 107.393C427.864 106.118 426.382 105.348 424.574 105.348C422.262 105.348 420.306 106.918 419.684 109.23C418.587 105.733 415.86 105.348 414.704 105.348C413.549 105.348 410.822 105.733 409.725 109.23C409.132 106.918 407.206 105.348 404.835 105.348C401.989 105.348 399.707 107.393 399.707 110.001C399.707 111.157 399.974 112.076 400.33 113.083L404.212 124.079C405.516 127.725 408.154 128.259 409.636 128.259C411.918 128.259 413.726 127.073 414.675 124.998C415.594 127.103 417.402 128.288 419.713 128.288C421.195 128.288 423.833 127.755 425.137 124.079L425.582 122.805C427.479 126.184 431.006 128.288 435.304 128.288C438.416 128.288 442.536 126.954 444.432 124.524C446.448 126.865 449.471 128.288 452.968 128.288C455.34 128.288 458.333 127.518 460.438 126.036C461.327 127.31 462.779 128.081 464.468 128.081C465.476 128.081 466.365 127.844 467.106 127.399C468.233 127.962 469.477 128.259 470.782 128.259C473.331 128.259 475.702 127.31 477.51 125.502C478.34 127.192 479.999 128.259 482.015 128.259C484.178 128.259 485.957 126.954 486.698 125.058C486.698 125.058 485.957 129.177 485.957 129.948C485.957 132.645 488.18 134.69 491.114 134.69C493.189 134.69 494.967 133.356 495.827 131.134L503.325 112.491C503.622 111.809 503.77 111.068 503.77 110.238C503.829 107.452 501.251 105.525 498.879 105.525V105.525ZM426.412 112.105L422.5 123.131C422.025 124.465 421.225 125.443 419.743 125.443C418.35 125.443 417.52 124.672 417.105 123.338L414.764 115.988H414.734L412.393 123.338C411.978 124.672 411.148 125.443 409.755 125.443C408.243 125.443 407.473 124.435 406.998 123.131L403.116 112.164C402.79 111.246 402.641 110.653 402.641 110.001C402.641 108.963 403.59 108.163 404.924 108.163C406.05 108.163 406.82 108.875 407.087 109.971L409.725 118.715H409.784L412.452 110.179C412.808 108.934 413.46 108.163 414.764 108.163C416.068 108.163 416.72 108.904 417.076 110.179L419.743 118.715H419.802L422.44 109.971C422.677 108.875 423.507 108.163 424.604 108.163C425.938 108.163 426.886 108.963 426.886 110.386C426.856 110.89 426.619 111.394 426.412 112.105H426.412ZM435.748 121.59C438.06 121.59 439.631 119.752 440.846 119.752C441.795 119.752 442.684 120.701 442.684 121.679C442.684 123.605 438.712 125.472 435.363 125.472C430.295 125.472 426.975 121.797 426.975 116.877C426.975 112.342 430.295 108.222 435.007 108.222C439.868 108.222 443.069 112.639 443.069 116.403C443.069 117.737 442.476 118.418 441.113 118.418H431.539C431.836 120.552 433.673 121.59 435.748 121.59ZM458.748 118.359H449.175C449.471 120.552 451.309 121.56 453.413 121.56C455.725 121.56 457.296 119.722 458.511 119.722C459.459 119.722 460.349 120.671 460.349 121.649C460.349 123.576 456.377 125.443 453.028 125.443C447.959 125.443 444.64 121.768 444.64 116.847C444.64 112.313 447.959 108.193 452.672 108.193C457.533 108.193 460.734 112.609 460.734 116.373C460.704 117.707 460.082 118.359 458.748 118.359V118.359ZM470.841 125.472C469.3 125.472 467.581 124.791 466.751 123.427C466.484 124.613 465.743 125.295 464.528 125.295C463.224 125.295 462.305 124.287 462.305 122.805V103.628C462.305 102.117 463.164 101.139 464.498 101.139C465.802 101.139 466.691 102.146 466.691 103.628V109.734C467.966 108.697 469.418 108.163 470.989 108.163C475.791 108.163 478.251 112.668 478.251 117.055C478.221 121.234 475.346 125.472 470.841 125.472V125.472ZM484.356 122.953C484.356 124.465 483.408 125.443 482.104 125.443C480.8 125.443 479.851 124.435 479.851 122.953V103.569C479.851 102.058 480.8 101.079 482.104 101.079C483.408 101.079 484.356 102.087 484.356 103.569V122.953ZM500.806 111.424L493.337 130.126C492.981 131.045 492.27 131.904 491.233 131.904C489.691 131.904 488.891 130.956 488.891 129.978C488.891 129.563 489.01 129.088 489.158 128.673L491.114 123.813L486.164 111.453C486.046 111.127 485.957 110.771 485.957 110.297C485.957 109.171 487.142 108.371 488.061 108.371C489.158 108.371 489.928 108.963 490.284 109.971L493.367 118.389L496.686 109.971C497.042 108.963 497.842 108.371 498.909 108.371C499.828 108.371 501.013 109.171 501.013 110.297C501.043 110.742 500.954 111.068 500.806 111.424V111.424Z" fill="#0099D6"/>
</g>
<g filter="url(#filter2_d_3_21)">
<rect x="388.857" y="163.091" width="151.893" height="58.7783" rx="5.42468" fill="white"/>
<path d="M427.671 180.895C427.645 180.712 427.489 180.608 427.359 180.608C427.229 180.608 424.651 180.556 424.651 180.556C424.651 180.556 422.49 178.473 422.282 178.239C422.073 178.03 421.657 178.082 421.5 178.134C421.5 178.134 421.084 178.265 420.407 178.473C420.303 178.108 420.12 177.666 419.886 177.197C419.131 175.739 417.985 174.958 416.631 174.958C416.527 174.958 416.449 174.958 416.345 174.984C416.293 174.932 416.267 174.88 416.215 174.854C415.616 174.229 414.861 173.916 413.949 173.942C412.205 173.994 410.46 175.27 409.028 177.51C408.038 179.098 407.283 181.077 407.049 182.613C405.044 183.238 403.638 183.681 403.586 183.681C402.57 183.993 402.544 184.019 402.414 184.983C402.362 185.712 399.706 206.256 399.706 206.256L421.995 210.11L431.655 207.714C431.629 207.714 427.698 181.077 427.671 180.895ZM419.287 178.838C418.766 178.994 418.193 179.176 417.569 179.384C417.569 178.499 417.438 177.249 417.048 176.208C418.376 176.416 419.027 177.926 419.287 178.838ZM416.397 179.723C415.225 180.087 413.949 180.478 412.673 180.869C413.038 179.488 413.715 178.134 414.548 177.223C414.861 176.885 415.303 176.52 415.798 176.312C416.319 177.327 416.423 178.759 416.397 179.723ZM414.001 175.114C414.418 175.114 414.756 175.192 415.043 175.4C414.574 175.635 414.105 175.999 413.689 176.468C412.569 177.666 411.71 179.515 411.371 181.311C410.304 181.65 409.262 181.962 408.325 182.249C408.95 179.41 411.319 175.192 414.001 175.114Z" fill="#95BF47"/>
<path d="M427.36 180.608C427.23 180.608 424.652 180.556 424.652 180.556C424.652 180.556 422.491 178.473 422.283 178.239C422.204 178.161 422.1 178.108 421.996 178.108V210.11L431.656 207.714C431.656 207.714 427.725 181.077 427.699 180.895C427.646 180.712 427.49 180.608 427.36 180.608Z" fill="#5E8E3E"/>
<path d="M416.632 185.581L415.512 189.774C415.512 189.774 414.262 189.201 412.778 189.305C410.591 189.435 410.591 190.815 410.591 191.154C410.721 193.028 415.642 193.445 415.929 197.845C416.137 201.309 414.106 203.678 411.138 203.86C407.597 204.043 405.644 201.959 405.644 201.959L406.399 198.757C406.399 198.757 408.378 200.241 409.94 200.137C410.955 200.085 411.346 199.225 411.294 198.653C411.138 196.205 407.128 196.361 406.867 192.325C406.659 188.94 408.872 185.529 413.768 185.217C415.668 185.087 416.632 185.581 416.632 185.581Z" fill="white"/>
<path d="M444.727 194.512C443.608 193.913 443.035 193.392 443.035 192.689C443.035 191.804 443.842 191.231 445.092 191.231C446.55 191.231 447.852 191.83 447.852 191.83L448.867 188.705C448.867 188.705 447.93 187.976 445.17 187.976C441.316 187.976 438.634 190.19 438.634 193.288C438.634 195.059 439.884 196.387 441.551 197.35C442.905 198.105 443.373 198.652 443.373 199.459C443.373 200.292 442.696 200.969 441.446 200.969C439.598 200.969 437.827 200.006 437.827 200.006L436.734 203.131C436.734 203.131 438.348 204.224 441.082 204.224C445.04 204.224 447.904 202.271 447.904 198.756C447.878 196.855 446.446 195.501 444.727 194.512Z" fill="black"/>
<path d="M460.506 187.924C458.553 187.924 457.017 188.862 455.845 190.268L455.793 190.242L457.485 181.389H453.085L448.789 203.938H453.189L454.647 196.231C455.22 193.314 456.73 191.518 458.136 191.518C459.126 191.518 459.516 192.195 459.516 193.158C459.516 193.757 459.464 194.512 459.334 195.111L457.668 203.938H462.068L463.787 194.825C463.969 193.861 464.099 192.716 464.099 191.934C464.125 189.435 462.823 187.924 460.506 187.924Z" fill="black"/>
<path d="M474.099 187.924C468.788 187.924 465.272 192.715 465.272 198.053C465.272 201.464 467.382 204.224 471.339 204.224C476.547 204.224 480.062 199.564 480.062 194.095C480.088 190.945 478.24 187.924 474.099 187.924ZM471.938 200.865C470.428 200.865 469.803 199.59 469.803 197.975C469.803 195.449 471.105 191.335 473.501 191.335C475.063 191.335 475.584 192.689 475.584 193.991C475.584 196.699 474.256 200.865 471.938 200.865Z" fill="black"/>
<path d="M491.362 187.924C488.394 187.924 486.701 190.554 486.701 190.554H486.649L486.91 188.185H483.004C482.822 189.773 482.457 192.221 482.119 194.043L479.046 210.187H483.447L484.67 203.652H484.774C484.774 203.652 485.686 204.224 487.352 204.224C492.534 204.224 495.919 198.913 495.919 193.549C495.919 190.58 494.591 187.924 491.362 187.924ZM487.144 200.918C485.998 200.918 485.321 200.267 485.321 200.267L486.05 196.153C486.571 193.392 488.003 191.57 489.54 191.57C490.894 191.57 491.31 192.82 491.31 193.991C491.31 196.856 489.618 200.918 487.144 200.918Z" fill="black"/>
<path d="M502.219 181.597C500.813 181.597 499.694 182.717 499.694 184.149C499.694 185.451 500.527 186.362 501.777 186.362H501.829C503.209 186.362 504.381 185.425 504.407 183.81C504.407 182.534 503.547 181.597 502.219 181.597Z" fill="black"/>
<path d="M496.049 203.912H500.449L503.444 188.289H499.017L496.049 203.912Z" fill="black"/>
<path d="M514.667 188.263H511.595L511.751 187.534C512.011 186.024 512.896 184.696 514.381 184.696C515.162 184.696 515.787 184.93 515.787 184.93L516.646 181.467C516.646 181.467 515.891 181.076 514.25 181.076C512.688 181.076 511.126 181.519 509.928 182.534C508.418 183.81 507.715 185.659 507.376 187.534L507.246 188.263H505.189L504.538 191.596H506.595L504.252 203.938H508.652L510.996 191.596H514.042L514.667 188.263Z" fill="black"/>
<path d="M525.291 188.289C525.291 188.289 522.531 195.241 521.307 199.043H521.255C521.177 197.819 520.162 188.289 520.162 188.289H515.527L518.183 202.636C518.235 202.948 518.209 203.157 518.079 203.365C517.558 204.355 516.699 205.318 515.683 206.021C514.85 206.62 513.912 207.01 513.183 207.271L514.407 211.02C515.292 210.838 517.167 210.083 518.73 208.625C520.735 206.75 522.609 203.834 524.51 199.876L529.9 188.289H525.291Z" fill="black"/>
</g>
<g filter="url(#filter3_d_3_21)">
<rect x="388.857" y="243.568" width="75.9455" height="54.2468" rx="5.42468" fill="white"/>
<path d="M430.927 260.879C429.833 261.464 429.442 262.428 429.442 265.099C429.442 265.099 429.989 264.561 430.802 264.261C431.396 264.056 431.896 263.724 432.193 263.502C433.116 262.823 433.241 261.954 433.241 260.484C433.241 260.484 431.74 260.437 430.927 260.879V260.879Z" fill="black"/>
<path d="M424.517 261.511C423.641 262.301 423.375 263.55 423.375 263.55L420.436 274.959L418.013 265.604C417.779 264.624 417.341 263.376 416.669 262.554C415.825 261.511 414.089 261.448 413.902 261.448C413.714 261.448 411.963 261.511 411.104 262.57C410.431 263.408 409.994 264.64 409.759 265.62L407.336 274.975L404.428 263.55C404.428 263.55 404.178 262.286 403.287 261.511C401.849 260.231 399.707 260.5 399.707 260.5L405.288 281.897C405.288 281.897 407.133 282.039 408.055 281.549C409.259 280.933 409.853 280.443 410.588 277.519C411.244 274.928 413.073 267.311 413.245 266.758C413.323 266.489 413.433 265.841 413.902 265.841C414.386 265.841 414.48 266.473 414.558 266.758C414.73 267.295 416.544 274.928 417.216 277.519C417.951 280.427 418.529 280.901 419.749 281.549C420.671 282.039 422.516 281.897 422.516 281.897L428.097 260.516C428.097 260.516 425.955 260.247 424.517 261.511V261.511ZM433.24 263.992C433.24 263.992 432.896 264.53 432.099 265.004C431.583 265.288 431.098 265.494 430.567 265.746C429.691 266.173 429.441 266.663 429.441 267.39V281.897C429.441 281.897 430.864 282.071 431.77 281.612C432.958 280.996 433.224 280.411 433.24 277.741V263.992ZM447.184 271.246L454.266 260.563C454.266 260.563 451.28 260.042 449.795 261.416C448.842 262.286 447.779 263.85 447.779 263.85L445.183 267.674C445.043 267.864 444.902 268.085 444.636 268.085C444.371 268.085 444.199 267.88 444.089 267.674L441.463 263.866C441.463 263.866 440.415 262.301 439.446 261.432C437.977 260.057 434.975 260.579 434.975 260.579L442.072 271.23L434.975 281.865C434.975 281.865 438.102 282.276 439.571 280.901C440.525 280.032 441.447 278.594 441.447 278.594L444.042 274.786C444.183 274.596 444.324 274.375 444.589 274.375C444.855 274.375 445.027 274.58 445.137 274.786L447.732 278.594C447.732 278.594 448.701 280 449.639 280.901C451.108 282.276 454.188 281.865 454.188 281.865L447.184 271.246Z" fill="black"/>
</g>
<g filter="url(#filter4_d_3_21)">
<rect x="388.857" y="319.514" width="151.891" height="54.2468" rx="5.42468" fill="white"/>
<g clip-path="url(#clip0_3_21)">
<path d="M447.078 346.034C447.078 343.556 445.289 341.437 442.592 341.437C439.894 341.437 438.05 343.584 438.05 346.034C438.05 348.456 439.839 350.575 442.537 350.575C443.665 350.575 444.546 350.245 445.344 349.612L446.528 350.685L447.189 349.942L446.005 348.979C446.693 348.153 447.078 347.107 447.078 346.034ZM445.289 348.318L443.665 346.859L443.005 347.602L444.629 349.006C444.078 349.392 443.39 349.667 442.619 349.667C440.61 349.667 439.151 348.043 439.151 346.006C439.151 343.997 440.61 342.345 442.619 342.345C444.629 342.345 446.088 343.969 446.088 346.006C446.088 346.914 445.812 347.713 445.289 348.318V348.318ZM455.446 346.694C455.446 348.593 454.428 349.612 452.749 349.612C451.07 349.612 450.051 348.538 450.051 346.639V341.519H449.033V346.694C449.033 349.226 450.547 350.52 452.749 350.52C454.951 350.52 456.464 349.171 456.464 346.584V341.519H455.446V346.694ZM515.312 349.667C513.358 349.667 511.899 348.043 511.899 346.006C511.899 343.997 513.358 342.345 515.312 342.345C516.496 342.345 517.322 342.841 518.12 343.584L518.781 342.841C517.872 341.987 516.936 341.437 515.312 341.437C512.725 341.437 510.826 343.501 510.826 346.034C510.826 348.566 512.725 350.575 515.257 350.575C516.881 350.575 517.9 349.97 518.808 349.006L518.147 348.401C517.349 349.171 516.551 349.667 515.312 349.667V349.667ZM521.616 349.502V346.419H526.432V345.511H521.616V342.483H527.01V341.575H520.597V350.465H527.065V349.502H521.616V349.502ZM497.504 341.602H494.201V350.465H495.219V347.327H497.366C499.265 347.327 500.834 346.309 500.834 344.41C500.834 342.648 499.541 341.602 497.504 341.602ZM499.816 344.465C499.816 345.648 498.853 346.419 497.394 346.419H495.192V342.538H497.449C498.853 342.483 499.816 343.171 499.816 344.465ZM433.564 345.511C431.61 345.125 431.142 344.602 431.142 343.777C431.142 342.978 431.885 342.373 433.041 342.373C433.949 342.373 434.775 342.648 435.628 343.336L436.179 342.538C435.27 341.795 434.39 341.464 433.096 341.464C431.417 341.464 430.178 342.483 430.178 343.887C430.178 345.345 431.142 346.034 433.151 346.474C434.995 346.859 435.463 347.327 435.463 348.153C435.463 349.061 434.665 349.667 433.509 349.667C432.27 349.667 431.362 349.281 430.481 348.428L429.875 349.171C430.949 350.135 432.077 350.575 433.481 350.575C435.215 350.575 436.509 349.557 436.509 348.043C436.426 346.639 435.518 345.978 433.564 345.511V345.511ZM478.649 346.419H483.466V345.511H478.649V342.483H484.044V341.575H477.631V350.465H484.099V349.502H478.649V346.419ZM489.329 345.511C487.375 345.125 486.907 344.602 486.907 343.777C486.907 342.978 487.65 342.373 488.806 342.373C489.714 342.373 490.54 342.648 491.393 343.336L491.944 342.538C491.036 341.795 490.155 341.464 488.861 341.464C487.182 341.464 485.943 342.483 485.943 343.887C485.943 345.345 486.907 346.034 488.916 346.474C490.76 346.859 491.228 347.327 491.228 348.153C491.228 349.061 490.43 349.667 489.274 349.667C488.035 349.667 487.127 349.281 486.246 348.428L485.641 349.171C486.714 350.135 487.843 350.575 489.246 350.575C490.98 350.575 492.274 349.557 492.274 348.043C492.192 346.639 491.283 345.978 489.329 345.511V345.511ZM461.804 341.547L457.758 350.465H458.776L459.85 348.098H464.667L465.685 350.465H466.759L462.713 341.547H461.804V341.547ZM460.235 347.217L462.245 342.731L464.254 347.217H460.235ZM505.046 341.547L501 350.465H502.018L503.091 348.098H507.908L508.927 350.465H510L505.954 341.547H505.046V341.547ZM503.477 347.217L505.486 342.731L507.495 347.217H503.477V347.217ZM475.512 344.244C475.512 343.501 475.236 342.896 474.851 342.455C474.3 341.905 473.447 341.547 472.319 341.547H468.493V350.41H469.511V346.997H472.043L474.631 350.41H475.869L473.172 346.804C474.493 346.529 475.512 345.703 475.512 344.244V344.244ZM469.484 346.089V342.483H472.236C473.64 342.483 474.493 343.143 474.493 344.217C474.493 345.345 473.53 346.006 472.181 346.006H469.484V346.089ZM405.764 347.107C406.149 347.492 406.837 347.492 407.278 347.107L413.966 340.418C414.819 339.565 416.113 339.565 416.939 340.418C417.324 340.804 418.012 340.804 418.453 340.418C418.838 340.033 418.838 339.345 418.453 338.905C416.829 337.281 414.131 337.281 412.507 338.905L405.764 345.566C405.323 346.034 405.323 346.639 405.764 347.107ZM416.141 342.593C416.526 342.208 416.526 341.519 416.141 341.079C415.755 340.694 415.067 340.694 414.627 341.079L407.966 347.823C407.112 348.676 405.819 348.676 404.993 347.823C404.14 346.969 404.14 345.676 404.993 344.85L411.571 338.272C410.718 337.418 409.425 337.418 408.599 338.272L403.534 343.336C401.91 344.96 401.91 347.657 403.534 349.281C405.158 350.905 407.856 350.905 409.48 349.281L416.141 342.593V342.593ZM416.939 343.336L410.195 350.08C409.81 350.465 409.81 351.153 410.195 351.594C410.581 351.979 411.269 351.979 411.709 351.594L418.398 344.905C419.251 344.052 420.545 344.052 421.37 344.905C422.196 345.758 422.224 347.052 421.37 347.878L414.792 354.401C415.645 355.254 416.939 355.254 417.765 354.401L422.884 349.281C424.508 347.657 424.508 344.96 422.884 343.336C421.205 341.712 418.563 341.712 416.939 343.336V343.336ZM420.655 345.566C420.269 345.18 419.581 345.18 419.141 345.566L412.452 352.309C411.599 353.162 410.305 353.162 409.48 352.309C409.094 351.924 408.406 351.924 407.966 352.309C407.58 352.695 407.58 353.383 407.966 353.823C409.59 355.447 412.287 355.447 413.911 353.823L420.6 347.135C421.04 346.639 421.04 346.034 420.655 345.566Z" fill="black"/>
</g>
</g>
<g filter="url(#filter5_d_3_21)">
<rect x="388.857" y="395.459" width="131.277" height="54.2468" rx="5.42468" fill="white"/>
<path d="M431.171 417.634C431.171 415.823 429.41 413.9 426.363 413.9C422.941 413.9 419.182 416.41 418.608 421.418C418.021 426.475 421.168 428.723 424.34 428.723C427.512 428.723 429.173 427.487 430.871 425.838C429.41 424.003 427.524 424.852 427.162 425.039C426.762 425.239 426.25 425.514 425.201 425.514C423.978 425.514 422.729 424.964 422.729 422.679C430.571 421.905 431.171 419.445 431.171 417.634ZM427.287 417.934C427.237 418.496 427.012 419.457 423.041 419.994C423.878 417.022 425.476 416.797 426.213 416.797C426.9 416.797 427.337 417.334 427.287 417.934ZM414 418.421C414 418.421 412.314 423.715 412.177 424.152C412.127 423.703 410.89 414.2 410.89 414.2C408.018 414.2 406.482 416.248 405.671 418.408C405.671 418.408 403.623 423.715 403.448 424.165C403.435 423.753 403.136 418.471 403.136 418.471C402.961 415.823 400.538 414.212 398.578 414.212L400.95 428.611C403.96 428.598 405.583 426.563 406.432 424.402C406.432 424.402 408.243 419.719 408.318 419.507C408.33 419.707 409.617 428.611 409.617 428.611C412.639 428.611 414.262 426.7 415.136 424.615L419.37 414.212C416.385 414.212 414.812 416.248 414 418.421ZM442.26 413.875C440.399 413.875 438.976 414.887 437.777 416.373V416.36L438.851 407.706C436.378 407.706 434.368 409.854 433.98 413.051L432.107 428.498C433.531 428.498 435.042 428.086 435.854 427.037C436.578 427.974 437.664 428.723 439.275 428.723C443.446 428.723 446.306 423.878 446.306 419.332C446.281 415.186 444.27 413.875 442.26 413.875ZM441.873 421.305C441.436 423.84 440.025 425.564 438.663 425.564C437.29 425.564 436.703 424.952 436.703 424.952C436.965 422.729 437.127 421.368 437.627 420.194C438.126 419.02 439.313 417.147 440.549 417.147C441.76 417.147 442.31 418.758 441.873 421.305ZM456.721 414.212H453.811L453.824 414.062C454.023 412.164 454.473 411.165 455.959 411.003C456.97 410.903 457.42 410.378 457.532 409.804C457.62 409.354 457.895 407.793 457.895 407.793C452.05 407.756 450.215 410.279 449.74 414.125L449.728 414.212H449.665C448.716 414.212 447.667 415.286 447.492 416.647L447.43 417.147H449.378L447.742 430.659L447.242 433.081C447.305 433.081 447.38 433.094 447.442 433.094C450.177 432.994 451.925 430.833 452.313 427.699L453.586 417.147H454.498C455.397 417.147 456.446 416.248 456.633 414.749L456.721 414.212ZM471.856 413.962C468.497 413.962 465.325 416.435 464.351 420.319C463.377 424.202 464.85 428.798 469.795 428.798C474.728 428.798 477.575 424.015 477.575 420.032C477.575 416.073 474.89 413.962 471.856 413.962ZM473.217 421.18C473.042 422.941 472.268 425.614 470.145 425.614C468.01 425.614 468.309 422.492 468.522 421.006C468.746 419.42 469.633 417.159 471.544 417.159C473.255 417.159 473.417 419.195 473.217 421.18ZM494.172 418.421C494.172 418.421 492.486 423.715 492.348 424.152C492.298 423.703 491.062 414.2 491.062 414.2C488.19 414.2 486.654 416.248 485.842 418.408C485.842 418.408 483.794 423.715 483.619 424.165C483.607 423.753 483.307 418.471 483.307 418.471C483.132 415.823 480.71 414.212 478.749 414.212L481.109 428.611C484.119 428.598 485.742 426.563 486.592 424.402C486.592 424.402 488.402 419.719 488.465 419.507C488.477 419.707 489.763 428.611 489.763 428.611C492.785 428.611 494.409 426.7 495.283 424.615L499.516 414.212C496.544 414.212 494.971 416.248 494.172 418.421ZM459.468 407.793L457.02 427.537L456.521 429.972C456.583 429.972 456.658 429.984 456.721 429.984C459.356 429.947 461.229 427.637 461.578 424.727L462.99 413.4C463.414 409.941 461.354 407.793 459.468 407.793Z" fill="#4353FF"/>
</g>
<path d="M148.523 231.188H261.253M261.253 231.188V271.826M261.253 231.188V193.801M388.857 40.4598H261.253V115.234M261.253 115.234H388.857M261.253 115.234V193.801M261.253 271.826H388.857M261.253 271.826V346.601M261.253 346.601H388.857M261.253 346.601V421.917H388.857M261.253 193.801H388.857" stroke="#D6DAE4" stroke-width="2.16987" stroke-dasharray="5.42 5.42"/>
<ellipse cx="261.112" cy="231.188" rx="5.41292" ry="5.41842" fill="#D6DAE4"/>
<defs>
<filter id="filter0_d_3_21" x="378.007" y="0.351084" width="173.59" height="75.9455" filterUnits="userSpaceOnUse" color-interpolation-filters="sRGB">
<feFlood flood-opacity="0" result="BackgroundImageFix"/>
<feColorMatrix in="SourceAlpha" type="matrix" values="0 0 0 0 0 0 0 0 0 0 0 0 0 0 0 0 0 0 127 0" result="hardAlpha"/>
<feOffset/>
<feGaussianBlur stdDeviation="5.42468"/>
<feColorMatrix type="matrix" values="0 0 0 0 0.611765 0 0 0 0 0.627451 0 0 0 0 0.67451 0 0 0 0.4 0"/>
<feBlend mode="normal" in2="BackgroundImageFix" result="effect1_dropShadow_3_21"/>
<feBlend mode="normal" in="SourceGraphic" in2="effect1_dropShadow_3_21" result="shape"/>
</filter>
<filter id="filter1_d_3_21" x="378.007" y="76.2966" width="147.551" height="75.9455" filterUnits="userSpaceOnUse" color-interpolation-filters="sRGB">
<feFlood flood-opacity="0" result="BackgroundImageFix"/>
<feColorMatrix in="SourceAlpha" type="matrix" values="0 0 0 0 0 0 0 0 0 0 0 0 0 0 0 0 0 0 127 0" result="hardAlpha"/>
<feOffset/>
<feGaussianBlur stdDeviation="5.42468"/>
<feColorMatrix type="matrix" values="0 0 0 0 0.611765 0 0 0 0 0.627451 0 0 0 0 0.67451 0 0 0 0.4 0"/>
<feBlend mode="normal" in2="BackgroundImageFix" result="effect1_dropShadow_3_21"/>
<feBlend mode="normal" in="SourceGraphic" in2="effect1_dropShadow_3_21" result="shape"/>
</filter>
<filter id="filter2_d_3_21" x="378.007" y="152.242" width="173.591" height="80.477" filterUnits="userSpaceOnUse" color-interpolation-filters="sRGB">
<feFlood flood-opacity="0" result="BackgroundImageFix"/>
<feColorMatrix in="SourceAlpha" type="matrix" values="0 0 0 0 0 0 0 0 0 0 0 0 0 0 0 0 0 0 127 0" result="hardAlpha"/>
<feOffset/>
<feGaussianBlur stdDeviation="5.42468"/>
<feColorMatrix type="matrix" values="0 0 0 0 0.611765 0 0 0 0 0.627451 0 0 0 0 0.67451 0 0 0 0.4 0"/>
<feBlend mode="normal" in2="BackgroundImageFix" result="effect1_dropShadow_3_21"/>
<feBlend mode="normal" in="SourceGraphic" in2="effect1_dropShadow_3_21" result="shape"/>
</filter>
<filter id="filter3_d_3_21" x="378.007" y="232.719" width="97.6442" height="75.9455" filterUnits="userSpaceOnUse" color-interpolation-filters="sRGB">
<feFlood flood-opacity="0" result="BackgroundImageFix"/>
<feColorMatrix in="SourceAlpha" type="matrix" values="0 0 0 0 0 0 0 0 0 0 0 0 0 0 0 0 0 0 127 0" result="hardAlpha"/>
<feOffset/>
<feGaussianBlur stdDeviation="5.42468"/>
<feColorMatrix type="matrix" values="0 0 0 0 0.611765 0 0 0 0 0.627451 0 0 0 0 0.67451 0 0 0 0.4 0"/>
<feBlend mode="normal" in2="BackgroundImageFix" result="effect1_dropShadow_3_21"/>
<feBlend mode="normal" in="SourceGraphic" in2="effect1_dropShadow_3_21" result="shape"/>
</filter>
<filter id="filter4_d_3_21" x="378.007" y="308.665" width="173.59" height="75.9455" filterUnits="userSpaceOnUse" color-interpolation-filters="sRGB">
<feFlood flood-opacity="0" result="BackgroundImageFix"/>
<feColorMatrix in="SourceAlpha" type="matrix" values="0 0 0 0 0 0 0 0 0 0 0 0 0 0 0 0 0 0 127 0" result="hardAlpha"/>
<feOffset/>
<feGaussianBlur stdDeviation="5.42468"/>
<feColorMatrix type="matrix" values="0 0 0 0 0.611765 0 0 0 0 0.627451 0 0 0 0 0.67451 0 0 0 0.4 0"/>
<feBlend mode="normal" in2="BackgroundImageFix" result="effect1_dropShadow_3_21"/>
<feBlend mode="normal" in="SourceGraphic" in2="effect1_dropShadow_3_21" result="shape"/>
</filter>
<filter id="filter5_d_3_21" x="378.007" y="384.61" width="152.976" height="75.9455" filterUnits="userSpaceOnUse" color-interpolation-filters="sRGB">
<feFlood flood-opacity="0" result="BackgroundImageFix"/>
<feColorMatrix in="SourceAlpha" type="matrix" values="0 0 0 0 0 0 0 0 0 0 0 0 0 0 0 0 0 0 127 0" result="hardAlpha"/>
<feOffset/>
<feGaussianBlur stdDeviation="5.42468"/>
<feColorMatrix type="matrix" values="0 0 0 0 0.611765 0 0 0 0 0.627451 0 0 0 0 0.67451 0 0 0 0.4 0"/>
<feBlend mode="normal" in2="BackgroundImageFix" result="effect1_dropShadow_3_21"/>
<feBlend mode="normal" in="SourceGraphic" in2="effect1_dropShadow_3_21" result="shape"/>
</filter>
<clipPath id="clip0_3_21">
<rect width="130.192" height="21.7446" fill="white" transform="translate(399.707 335.327)"/>
</clipPath>
</defs>
</svg>
