<?xml version="1.0" encoding="UTF-8"?>

<svg xmlns="http://www.w3.org/2000/svg" xmlns:xlink="http://www.w3.org/1999/xlink">

  <symbol id="highlights" viewBox="0 0 40 40">
    <g clip-path="url(#clip0_1_4495)">
    <rect width="40" height="40" rx="8"/>
    <rect x="2.99805" y="16" width="10" height="10" rx="5" fill="#F9FAFD"/>
    <rect x="14.998" y="16" width="10" height="10" rx="5" fill="#F9FAFD"/>
    <rect x="26.998" y="16" width="10" height="10" rx="5" fill="#F9FAFD"/>
    </g>
    <defs>
    <clipPath>
    <rect rx="5" fill="white"/>
    </clipPath>
    </defs>
  </symbol>

  <symbol id="popover" viewBox="0 0 40 40">
    <g clip-path="url(#clip0_1_4502)">
    <rect width="40" height="40" rx="8"/>
    <rect x="3.99609" y="25" width="32" height="11" rx="3" fill="#F9FAFD"/>
    <rect x="4.99609" y="26" width="9" height="9" rx="4.5" fill="#9CA0AC"/>
    </g>
    <defs>
    <clipPath>
    <rect rx="5" fill="white"/>
    </clipPath>
    </defs>
  </symbol>

  <symbol id="slideshow" viewBox="0 0 40 40">
    <g clip-path="url(#clip0_1_4509)">
    <rect width="40" height="40" rx="8"/>
    <rect x="2.87891" y="12" width="7.99805" height="16" rx="2" fill="#F9FAFD"/>
    <rect x="12.877" y="8" width="14" height="24" rx="3" fill="#F9FAFD"/>
    <rect x="28.877" y="12" width="8.00195" height="16" rx="2" fill="#F9FAFD"/>
    </g>
    <defs>
    <clipPath>
    <rect rx="5" fill="white"/>
    </clipPath>
    </defs>
  </symbol>

  <symbol id="list" viewBox="0 0 40 40">
    <g clip-path="url(#clip0_1_4519)">
    <rect width="40" height="40" rx="8"/>
    <rect x="4.00012" y="4.74902" width="9" height="9" rx="4.5" fill="#F9FAFD"/>
    <rect x="4.00012" y="15.749" width="9" height="9" rx="4.5" fill="#F9FAFD"/>
    <rect x="4.00012" y="26.749" width="9" height="9" rx="4.5" fill="#F9FAFD"/>
    <rect x="15.0001" y="7.74902" width="20" height="3" rx="1" fill="#F9FAFD"/>
    <rect x="15.0001" y="18.749" width="20" height="3" rx="1" fill="#F9FAFD"/>
    <rect x="15.0001" y="29.749" width="20" height="3" rx="1" fill="#F9FAFD"/>
    </g>
    <defs>
    <clipPath>
    <rect rx="5" fill="white"/>
    </clipPath>
    </defs>
  </symbol>

  <symbol id="carousel" viewBox="0 0 40 40">
    <g clip-path="url(#clip0_1_4531)">
    <rect width="40" height="40" rx="8"/>
    <rect x="14.9395" y="13" width="10" height="14" rx="3" fill="#F9FAFD"/>
    <rect x="2.93945" y="13" width="10" height="14" rx="3" fill="#F9FAFD"/>
    <rect x="26.9395" y="13" width="10" height="14" rx="3" fill="#F9FAFD"/>
    </g>
    <defs>
    <clipPath>
    <rect rx="5" fill="white"/>
    </clipPath>
    </defs>
  </symbol>

</svg>
