<svg width="154" height="41" viewBox="0 0 154 41" fill="none" xmlns="http://www.w3.org/2000/svg">
<path d="M55.3613 27.1514C54.623 27.1514 53.9609 27.0342 53.375 26.7998C52.7891 26.5596 52.291 26.2285 51.8809 25.8066C51.4766 25.3848 51.166 24.8955 50.9492 24.3389C50.7324 23.7764 50.624 23.1787 50.624 22.5459V22.1943C50.624 21.4736 50.7266 20.8145 50.9316 20.2168C51.1367 19.6191 51.4297 19.1006 51.8105 18.6611C52.1973 18.2217 52.666 17.8848 53.2168 17.6504C53.7676 17.4102 54.3887 17.29 55.0801 17.29C55.7539 17.29 56.3516 17.4014 56.873 17.624C57.3945 17.8467 57.8311 18.1631 58.1826 18.5732C58.54 18.9834 58.8096 19.4756 58.9912 20.0498C59.1729 20.6182 59.2637 21.251 59.2637 21.9482V23.0029H51.7051V21.3154H56.7764V21.1221C56.7764 20.7705 56.7119 20.457 56.583 20.1816C56.46 19.9004 56.2725 19.6777 56.0205 19.5137C55.7686 19.3496 55.4463 19.2676 55.0537 19.2676C54.7197 19.2676 54.4326 19.3408 54.1924 19.4873C53.9521 19.6338 53.7559 19.8389 53.6035 20.1025C53.457 20.3662 53.3457 20.6768 53.2695 21.0342C53.1992 21.3857 53.1641 21.7725 53.1641 22.1943V22.5459C53.1641 22.9268 53.2168 23.2783 53.3223 23.6006C53.4336 23.9229 53.5889 24.2012 53.7881 24.4355C53.9932 24.6699 54.2393 24.8516 54.5264 24.9805C54.8193 25.1094 55.1504 25.1738 55.5195 25.1738C55.9766 25.1738 56.4014 25.0859 56.7939 24.9102C57.1924 24.7285 57.5352 24.4561 57.8223 24.0928L59.0527 25.4287C58.8535 25.7158 58.5811 25.9912 58.2354 26.2549C57.8955 26.5186 57.4854 26.7354 57.0049 26.9053C56.5244 27.0693 55.9766 27.1514 55.3613 27.1514ZM63.2363 19.4346V26.9756H60.6963V17.4658H63.0781L63.2363 19.4346ZM62.8848 21.8867H62.1816C62.1816 21.2246 62.2607 20.6152 62.4189 20.0586C62.583 19.4961 62.8203 19.0098 63.1309 18.5996C63.4473 18.1836 63.8369 17.8613 64.2998 17.6328C64.7627 17.4043 65.2988 17.29 65.9082 17.29C66.3301 17.29 66.7168 17.3545 67.0684 17.4834C67.4199 17.6064 67.7217 17.8027 67.9736 18.0723C68.2314 18.3359 68.4307 18.6816 68.5713 19.1094C68.7119 19.5312 68.7822 20.0381 68.7822 20.6299V26.9756H66.251V20.9111C66.251 20.4775 66.1924 20.1436 66.0752 19.9092C65.958 19.6748 65.791 19.5107 65.5742 19.417C65.3633 19.3232 65.1084 19.2764 64.8096 19.2764C64.4814 19.2764 64.1943 19.3438 63.9482 19.4785C63.708 19.6133 63.5088 19.8008 63.3506 20.041C63.1924 20.2754 63.0752 20.5508 62.999 20.8672C62.9229 21.1836 62.8848 21.5234 62.8848 21.8867ZM68.5449 21.5967L67.6396 21.7109C67.6396 21.0898 67.7158 20.5127 67.8682 19.9795C68.0264 19.4463 68.2578 18.9775 68.5625 18.5732C68.873 18.1689 69.2568 17.8555 69.7139 17.6328C70.1709 17.4043 70.6982 17.29 71.2959 17.29C71.7529 17.29 72.1689 17.3574 72.5439 17.4922C72.9189 17.6211 73.2383 17.8291 73.502 18.1162C73.7715 18.3975 73.9766 18.7666 74.1172 19.2236C74.2637 19.6807 74.3369 20.2402 74.3369 20.9023V26.9756H71.7969V20.9023C71.7969 20.4629 71.7383 20.1289 71.6211 19.9004C71.5098 19.666 71.3457 19.5049 71.1289 19.417C70.918 19.3232 70.666 19.2764 70.373 19.2764C70.0684 19.2764 69.8018 19.3379 69.5732 19.4609C69.3447 19.5781 69.1543 19.7422 69.002 19.9531C68.8496 20.1641 68.7354 20.4102 68.6592 20.6914C68.583 20.9668 68.5449 21.2686 68.5449 21.5967ZM76.2969 13.4756H78.8281V24.7959L78.5732 26.9756H76.2969V13.4756ZM84.8486 22.124V22.3086C84.8486 23.0176 84.7725 23.668 84.6201 24.2598C84.4736 24.8516 84.2451 25.3643 83.9346 25.7979C83.624 26.2256 83.2373 26.5596 82.7744 26.7998C82.3174 27.0342 81.7783 27.1514 81.1572 27.1514C80.5771 27.1514 80.0732 27.0342 79.6455 26.7998C79.2236 26.5654 78.8691 26.2344 78.582 25.8066C78.2949 25.3789 78.0635 24.8779 77.8877 24.3037C77.7119 23.7295 77.5801 23.1025 77.4922 22.4229V22.0186C77.5801 21.3389 77.7119 20.7119 77.8877 20.1377C78.0635 19.5635 78.2949 19.0625 78.582 18.6348C78.8691 18.207 79.2236 17.876 79.6455 17.6416C80.0674 17.4072 80.5654 17.29 81.1396 17.29C81.7666 17.29 82.3115 17.4102 82.7744 17.6504C83.2432 17.8848 83.6299 18.2188 83.9346 18.6523C84.2451 19.0801 84.4736 19.5898 84.6201 20.1816C84.7725 20.7676 84.8486 21.415 84.8486 22.124ZM82.3174 22.3086V22.124C82.3174 21.7373 82.2881 21.374 82.2295 21.0342C82.1768 20.6885 82.083 20.3867 81.9482 20.1289C81.8135 19.8652 81.6289 19.6572 81.3945 19.5049C81.166 19.3525 80.8701 19.2764 80.5068 19.2764C80.1611 19.2764 79.8682 19.335 79.6279 19.4521C79.3877 19.5693 79.1885 19.7334 79.0303 19.9443C78.8779 20.1553 78.7637 20.4072 78.6875 20.7002C78.6113 20.9873 78.5645 21.3037 78.5469 21.6494V22.8008C78.5645 23.2637 78.6406 23.6738 78.7754 24.0312C78.916 24.3828 79.127 24.6611 79.4082 24.8662C79.6953 25.0654 80.0674 25.165 80.5244 25.165C80.8818 25.165 81.1777 25.0947 81.4121 24.9541C81.6465 24.8135 81.8281 24.6143 81.957 24.3564C82.0918 24.0986 82.1855 23.7969 82.2383 23.4512C82.291 23.0996 82.3174 22.7188 82.3174 22.3086ZM90.7988 27.1514C90.0605 27.1514 89.3984 27.0342 88.8125 26.7998C88.2266 26.5596 87.7285 26.2285 87.3184 25.8066C86.9141 25.3848 86.6035 24.8955 86.3867 24.3389C86.1699 23.7764 86.0615 23.1787 86.0615 22.5459V22.1943C86.0615 21.4736 86.1641 20.8145 86.3691 20.2168C86.5742 19.6191 86.8672 19.1006 87.248 18.6611C87.6348 18.2217 88.1035 17.8848 88.6543 17.6504C89.2051 17.4102 89.8262 17.29 90.5176 17.29C91.1914 17.29 91.7891 17.4014 92.3105 17.624C92.832 17.8467 93.2686 18.1631 93.6201 18.5732C93.9775 18.9834 94.2471 19.4756 94.4287 20.0498C94.6104 20.6182 94.7012 21.251 94.7012 21.9482V23.0029H87.1426V21.3154H92.2139V21.1221C92.2139 20.7705 92.1494 20.457 92.0205 20.1816C91.8975 19.9004 91.71 19.6777 91.458 19.5137C91.2061 19.3496 90.8838 19.2676 90.4912 19.2676C90.1572 19.2676 89.8701 19.3408 89.6299 19.4873C89.3896 19.6338 89.1934 19.8389 89.041 20.1025C88.8945 20.3662 88.7832 20.6768 88.707 21.0342C88.6367 21.3857 88.6016 21.7725 88.6016 22.1943V22.5459C88.6016 22.9268 88.6543 23.2783 88.7598 23.6006C88.8711 23.9229 89.0264 24.2012 89.2256 24.4355C89.4307 24.6699 89.6768 24.8516 89.9639 24.9805C90.2568 25.1094 90.5879 25.1738 90.957 25.1738C91.4141 25.1738 91.8389 25.0859 92.2314 24.9102C92.6299 24.7285 92.9727 24.4561 93.2598 24.0928L94.4902 25.4287C94.291 25.7158 94.0186 25.9912 93.6729 26.2549C93.333 26.5186 92.9229 26.7354 92.4424 26.9053C91.9619 27.0693 91.4141 27.1514 90.7988 27.1514ZM101.759 24.9014V13.4756H104.308V26.9756H102.014L101.759 24.9014ZM95.7471 22.335V22.1504C95.7471 21.4238 95.8291 20.7646 95.9932 20.1729C96.1572 19.5752 96.3975 19.0625 96.7139 18.6348C97.0303 18.207 97.4199 17.876 97.8828 17.6416C98.3457 17.4072 98.873 17.29 99.4648 17.29C100.021 17.29 100.508 17.4072 100.924 17.6416C101.346 17.876 101.703 18.21 101.996 18.6436C102.295 19.0713 102.535 19.5781 102.717 20.1641C102.898 20.7441 103.03 21.3799 103.112 22.0713V22.4756C103.03 23.1377 102.898 23.7529 102.717 24.3213C102.535 24.8896 102.295 25.3877 101.996 25.8154C101.703 26.2373 101.346 26.5654 100.924 26.7998C100.502 27.0342 100.01 27.1514 99.4473 27.1514C98.8555 27.1514 98.3281 27.0312 97.8652 26.791C97.4082 26.5508 97.0215 26.2139 96.7051 25.7803C96.3945 25.3467 96.1572 24.8369 95.9932 24.251C95.8291 23.665 95.7471 23.0264 95.7471 22.335ZM98.2783 22.1504V22.335C98.2783 22.7275 98.3076 23.0938 98.3662 23.4336C98.4307 23.7734 98.5332 24.0752 98.6738 24.3389C98.8203 24.5967 99.0078 24.7988 99.2363 24.9453C99.4707 25.0859 99.7549 25.1562 100.089 25.1562C100.522 25.1562 100.88 25.0596 101.161 24.8662C101.442 24.667 101.656 24.3945 101.803 24.0488C101.955 23.7031 102.043 23.3047 102.066 22.8535V21.7021C102.049 21.333 101.996 21.002 101.908 20.709C101.826 20.4102 101.703 20.1553 101.539 19.9443C101.381 19.7334 101.182 19.5693 100.941 19.4521C100.707 19.335 100.429 19.2764 100.106 19.2764C99.7783 19.2764 99.4971 19.3525 99.2627 19.5049C99.0283 19.6514 98.8379 19.8535 98.6914 20.1113C98.5508 20.3691 98.4453 20.6738 98.375 21.0254C98.3105 21.3711 98.2783 21.7461 98.2783 22.1504ZM111.427 24.3477C111.427 24.166 111.374 24.002 111.269 23.8555C111.163 23.709 110.967 23.5742 110.68 23.4512C110.398 23.3223 109.991 23.2051 109.458 23.0996C108.978 22.9941 108.529 22.8623 108.113 22.7041C107.703 22.54 107.346 22.3438 107.041 22.1152C106.742 21.8867 106.508 21.6172 106.338 21.3066C106.168 20.9902 106.083 20.6299 106.083 20.2256C106.083 19.8271 106.168 19.4521 106.338 19.1006C106.514 18.749 106.763 18.4385 107.085 18.1689C107.413 17.8936 107.812 17.6797 108.28 17.5273C108.755 17.3691 109.288 17.29 109.88 17.29C110.706 17.29 111.415 17.4219 112.007 17.6855C112.604 17.9492 113.062 18.3125 113.378 18.7754C113.7 19.2324 113.861 19.7539 113.861 20.3398H111.33C111.33 20.0938 111.277 19.874 111.172 19.6807C111.072 19.4814 110.914 19.3262 110.697 19.2148C110.486 19.0977 110.211 19.0391 109.871 19.0391C109.59 19.0391 109.347 19.0889 109.142 19.1885C108.937 19.2822 108.778 19.4111 108.667 19.5752C108.562 19.7334 108.509 19.9092 108.509 20.1025C108.509 20.249 108.538 20.3809 108.597 20.498C108.661 20.6094 108.764 20.7119 108.904 20.8057C109.045 20.8994 109.227 20.9873 109.449 21.0693C109.678 21.1455 109.959 21.2158 110.293 21.2803C110.979 21.4209 111.591 21.6055 112.13 21.834C112.669 22.0566 113.097 22.3613 113.413 22.748C113.729 23.1289 113.888 23.6299 113.888 24.251C113.888 24.6729 113.794 25.0596 113.606 25.4111C113.419 25.7627 113.149 26.0703 112.798 26.334C112.446 26.5918 112.024 26.7939 111.532 26.9404C111.046 27.0811 110.498 27.1514 109.889 27.1514C109.004 27.1514 108.254 26.9932 107.639 26.6768C107.029 26.3604 106.566 25.959 106.25 25.4727C105.939 24.9805 105.784 24.4766 105.784 23.9609H108.184C108.195 24.3066 108.283 24.585 108.447 24.7959C108.617 25.0068 108.831 25.1592 109.089 25.2529C109.353 25.3467 109.637 25.3936 109.941 25.3936C110.27 25.3936 110.542 25.3496 110.759 25.2617C110.976 25.168 111.14 25.0449 111.251 24.8926C111.368 24.7344 111.427 24.5527 111.427 24.3477ZM115.127 22.3174V22.1328C115.127 21.4355 115.227 20.7939 115.426 20.208C115.625 19.6162 115.915 19.1035 116.296 18.6699C116.677 18.2363 117.146 17.8994 117.702 17.6592C118.259 17.4131 118.897 17.29 119.618 17.29C120.339 17.29 120.98 17.4131 121.543 17.6592C122.105 17.8994 122.577 18.2363 122.958 18.6699C123.345 19.1035 123.638 19.6162 123.837 20.208C124.036 20.7939 124.136 21.4355 124.136 22.1328V22.3174C124.136 23.0088 124.036 23.6504 123.837 24.2422C123.638 24.8281 123.345 25.3408 122.958 25.7803C122.577 26.2139 122.108 26.5508 121.552 26.791C120.995 27.0312 120.356 27.1514 119.636 27.1514C118.915 27.1514 118.273 27.0312 117.711 26.791C117.154 26.5508 116.683 26.2139 116.296 25.7803C115.915 25.3408 115.625 24.8281 115.426 24.2422C115.227 23.6504 115.127 23.0088 115.127 22.3174ZM117.658 22.1328V22.3174C117.658 22.7158 117.693 23.0879 117.764 23.4336C117.834 23.7793 117.945 24.084 118.098 24.3477C118.256 24.6055 118.461 24.8076 118.713 24.9541C118.965 25.1006 119.272 25.1738 119.636 25.1738C119.987 25.1738 120.289 25.1006 120.541 24.9541C120.793 24.8076 120.995 24.6055 121.147 24.3477C121.3 24.084 121.411 23.7793 121.481 23.4336C121.558 23.0879 121.596 22.7158 121.596 22.3174V22.1328C121.596 21.7461 121.558 21.3828 121.481 21.043C121.411 20.6973 121.297 20.3926 121.139 20.1289C120.986 19.8594 120.784 19.6484 120.532 19.4961C120.28 19.3438 119.976 19.2676 119.618 19.2676C119.261 19.2676 118.956 19.3438 118.704 19.4961C118.458 19.6484 118.256 19.8594 118.098 20.1289C117.945 20.3926 117.834 20.6973 117.764 21.043C117.693 21.3828 117.658 21.7461 117.658 22.1328ZM129.62 25.1738C129.931 25.1738 130.206 25.1152 130.446 24.998C130.687 24.875 130.874 24.7051 131.009 24.4883C131.149 24.2656 131.223 24.0049 131.229 23.7061H133.61C133.604 24.374 133.426 24.9688 133.074 25.4902C132.723 26.0059 132.251 26.4131 131.659 26.7119C131.067 27.0049 130.405 27.1514 129.673 27.1514C128.935 27.1514 128.29 27.0283 127.739 26.7822C127.194 26.5361 126.74 26.1963 126.377 25.7627C126.014 25.3232 125.741 24.8135 125.56 24.2334C125.378 23.6475 125.287 23.0205 125.287 22.3525V22.0977C125.287 21.4238 125.378 20.7969 125.56 20.2168C125.741 19.6309 126.014 19.1211 126.377 18.6875C126.74 18.248 127.194 17.9053 127.739 17.6592C128.284 17.4131 128.923 17.29 129.655 17.29C130.435 17.29 131.117 17.4395 131.703 17.7383C132.295 18.0371 132.758 18.4648 133.092 19.0215C133.432 19.5723 133.604 20.2256 133.61 20.9814H131.229C131.223 20.665 131.155 20.3779 131.026 20.1201C130.903 19.8623 130.722 19.6572 130.481 19.5049C130.247 19.3467 129.957 19.2676 129.611 19.2676C129.242 19.2676 128.94 19.3467 128.706 19.5049C128.472 19.6572 128.29 19.8682 128.161 20.1377C128.032 20.4014 127.941 20.7031 127.889 21.043C127.842 21.377 127.818 21.7285 127.818 22.0977V22.3525C127.818 22.7217 127.842 23.0762 127.889 23.416C127.936 23.7559 128.023 24.0576 128.152 24.3213C128.287 24.585 128.472 24.793 128.706 24.9453C128.94 25.0977 129.245 25.1738 129.62 25.1738ZM137.75 17.4658V26.9756H135.21V17.4658H137.75ZM135.052 14.9873C135.052 14.6182 135.181 14.3135 135.438 14.0732C135.696 13.833 136.042 13.7129 136.476 13.7129C136.903 13.7129 137.246 13.833 137.504 14.0732C137.768 14.3135 137.899 14.6182 137.899 14.9873C137.899 15.3564 137.768 15.6611 137.504 15.9014C137.246 16.1416 136.903 16.2617 136.476 16.2617C136.042 16.2617 135.696 16.1416 135.438 15.9014C135.181 15.6611 135.052 15.3564 135.052 14.9873ZM144.975 24.8311V20.5947C144.975 20.29 144.925 20.0293 144.825 19.8125C144.726 19.5898 144.57 19.417 144.359 19.2939C144.154 19.1709 143.888 19.1094 143.56 19.1094C143.278 19.1094 143.035 19.1592 142.83 19.2588C142.625 19.3525 142.467 19.4902 142.355 19.6719C142.244 19.8477 142.188 20.0557 142.188 20.2959H139.657C139.657 19.8916 139.751 19.5078 139.938 19.1445C140.126 18.7812 140.398 18.4619 140.756 18.1865C141.113 17.9053 141.538 17.6855 142.03 17.5273C142.528 17.3691 143.085 17.29 143.7 17.29C144.438 17.29 145.095 17.4131 145.669 17.6592C146.243 17.9053 146.694 18.2744 147.022 18.7666C147.356 19.2588 147.523 19.874 147.523 20.6123V24.6816C147.523 25.2031 147.556 25.6309 147.62 25.9648C147.685 26.293 147.778 26.5801 147.901 26.8262V26.9756H145.344C145.221 26.7178 145.127 26.3955 145.062 26.0088C145.004 25.6162 144.975 25.2236 144.975 24.8311ZM145.309 21.1836L145.326 22.6162H143.911C143.577 22.6162 143.287 22.6543 143.041 22.7305C142.795 22.8066 142.593 22.915 142.435 23.0557C142.276 23.1904 142.159 23.3486 142.083 23.5303C142.013 23.7119 141.978 23.9111 141.978 24.1279C141.978 24.3447 142.027 24.541 142.127 24.7168C142.227 24.8867 142.37 25.0215 142.558 25.1211C142.745 25.2148 142.965 25.2617 143.217 25.2617C143.598 25.2617 143.929 25.1855 144.21 25.0332C144.491 24.8809 144.708 24.6934 144.86 24.4707C145.019 24.248 145.101 24.0371 145.106 23.8379L145.774 24.9102C145.681 25.1504 145.552 25.3994 145.388 25.6572C145.229 25.915 145.027 26.1582 144.781 26.3867C144.535 26.6094 144.239 26.7939 143.894 26.9404C143.548 27.0811 143.138 27.1514 142.663 27.1514C142.06 27.1514 141.512 27.0312 141.02 26.791C140.533 26.5449 140.146 26.208 139.859 25.7803C139.578 25.3467 139.438 24.8545 139.438 24.3037C139.438 23.8057 139.531 23.3633 139.719 22.9766C139.906 22.5898 140.182 22.2646 140.545 22.001C140.914 21.7314 141.374 21.5293 141.925 21.3945C142.476 21.2539 143.114 21.1836 143.841 21.1836H145.309ZM152.146 13.4756V26.9756H149.606V13.4756H152.146Z" fill="white"/>
<rect y="0.975586" width="40" height="40" rx="6.66667" fill="white"/>
<path d="M19.6589 12.4798V13.5966C19.6589 14.5577 19.479 14.7135 18.8585 15.0513L13.077 17.9864V18.1163L18.8322 20.9996C19.479 21.3371 19.6589 21.4672 19.6589 22.4543V23.7008C19.6589 24.48 19.4002 24.7399 18.7291 24.3763L10.0307 19.5967C9.51516 19.3111 9.33331 19.1032 9.33331 18.5061V17.6748C9.33331 17.0773 9.51516 16.8435 10.0307 16.5579L18.7291 11.8043C19.4002 11.4408 19.6589 11.7004 19.6589 12.4798Z" fill="#111827"/>
<path d="M20.5775 16.5872L29.2497 21.3407C29.7915 21.6264 29.9733 21.8341 29.9733 22.4315V23.2628C29.9733 23.8862 29.7915 24.0939 29.2497 24.3796L20.5775 29.1331C19.8802 29.4968 19.6477 29.2371 19.6477 28.4577V27.3409C19.6477 26.3799 19.8277 26.2239 20.4482 25.9123L26.2296 22.977V22.8212L20.4744 19.9379C19.8277 19.6263 19.6477 19.4704 19.6477 18.4833V17.2365C19.6477 16.4571 19.8802 16.1977 20.5775 16.5872Z" fill="#111827"/>
</svg>
